<?xml version="1.0" encoding="utf-8"?>
<!-- Generator: Adobe Illustrator 27.2.0, SVG Export Plug-In . SVG Version: 6.00 Build 0)  -->
<svg version="1.1" id="Layer_1" xmlns="http://www.w3.org/2000/svg" xmlns:xlink="http://www.w3.org/1999/xlink" x="0px" y="0px"
	 viewBox="0 0 460.7 123.9" style="enable-background:new 0 0 460.7 123.9;" xml:space="preserve">
<style type="text/css">
	.st0{clip-path:url(#SVGID_00000082356444642330898340000014677268412183927938_);}
	
		.st1{fill:none;stroke:url(#SVGID_00000017479511218719380000000009284298368744268418_);stroke-width:8.5211;stroke-miterlimit:2.3549;}
	.st2{fill:#FFFFFF;}
	.st3{fill:#FFFFC8;}
</style>
<g>
	<defs>
		<rect id="SVGID_1_" width="123.9" height="123.9"/>
	</defs>
	<clipPath id="SVGID_00000044177465584064028390000014927582412030024348_">
		<use xlink:href="#SVGID_1_"  style="overflow:visible;"/>
	</clipPath>
	<g style="clip-path:url(#SVGID_00000044177465584064028390000014927582412030024348_);">
		
			<linearGradient id="SVGID_00000076578079088876154440000006979235185913864363_" gradientUnits="userSpaceOnUse" x1="-489.1073" y1="-658.4437" x2="121.1626" y2="-306.1038" gradientTransform="matrix(0.2355 0 0 -0.2358 108.5419 -46.7395)">
			<stop  offset="0" style="stop-color:#FFFFC8"/>
			<stop  offset="6.250000e-02" style="stop-color:#FFFFC8"/>
			<stop  offset="7.812500e-02" style="stop-color:#FFFFC8"/>
			<stop  offset="9.375000e-02" style="stop-color:#FFFEC7"/>
			<stop  offset="0.1094" style="stop-color:#FFFDC6"/>
			<stop  offset="0.125" style="stop-color:#FFFDC6"/>
			<stop  offset="0.1406" style="stop-color:#FFFCC5"/>
			<stop  offset="0.1562" style="stop-color:#FFFBC4"/>
			<stop  offset="0.1719" style="stop-color:#FFFAC4"/>
			<stop  offset="0.1875" style="stop-color:#FFF9C3"/>
			<stop  offset="0.2031" style="stop-color:#FFF8C2"/>
			<stop  offset="0.2188" style="stop-color:#FFF7C1"/>
			<stop  offset="0.2344" style="stop-color:#FFF7C1"/>
			<stop  offset="0.25" style="stop-color:#FFF6C0"/>
			<stop  offset="0.2656" style="stop-color:#FFF5BF"/>
			<stop  offset="0.2812" style="stop-color:#FFF4BE"/>
			<stop  offset="0.2969" style="stop-color:#FFF3BE"/>
			<stop  offset="0.3125" style="stop-color:#FFF2BD"/>
			<stop  offset="0.3281" style="stop-color:#FFF2BC"/>
			<stop  offset="0.3438" style="stop-color:#FFF1BB"/>
			<stop  offset="0.3594" style="stop-color:#FFF0BB"/>
			<stop  offset="0.3631" style="stop-color:#FFEFBA"/>
			<stop  offset="0.375" style="stop-color:#FFEFBA"/>
			<stop  offset="0.3906" style="stop-color:#FFEEB9"/>
			<stop  offset="0.4062" style="stop-color:#FFEDB9"/>
			<stop  offset="0.4219" style="stop-color:#FFECB8"/>
			<stop  offset="0.4375" style="stop-color:#FFECB7"/>
			<stop  offset="0.4531" style="stop-color:#FFEBB6"/>
			<stop  offset="0.4688" style="stop-color:#FFEAB6"/>
			<stop  offset="0.4844" style="stop-color:#FFE9B5"/>
			<stop  offset="0.5" style="stop-color:#FFE8B4"/>
			<stop  offset="0.5156" style="stop-color:#FFE7B3"/>
			<stop  offset="0.5312" style="stop-color:#FFE7B3"/>
			<stop  offset="0.5469" style="stop-color:#FFE6B2"/>
			<stop  offset="0.5625" style="stop-color:#FFE5B1"/>
			<stop  offset="0.5781" style="stop-color:#FFE4B0"/>
			<stop  offset="0.5938" style="stop-color:#FFE3B0"/>
			<stop  offset="0.6094" style="stop-color:#FFE2AF"/>
			<stop  offset="0.625" style="stop-color:#FFE2AE"/>
			<stop  offset="0.6369" style="stop-color:#FFE1AE"/>
			<stop  offset="0.6406" style="stop-color:#FFE0AD"/>
			<stop  offset="0.6562" style="stop-color:#FFE0AD"/>
			<stop  offset="0.6719" style="stop-color:#FFDFAC"/>
			<stop  offset="0.6875" style="stop-color:#FFDEAB"/>
			<stop  offset="0.7031" style="stop-color:#FFDDAB"/>
			<stop  offset="0.7188" style="stop-color:#FFDCAA"/>
			<stop  offset="0.7344" style="stop-color:#FFDCA9"/>
			<stop  offset="0.75" style="stop-color:#FFDBA8"/>
			<stop  offset="0.7656" style="stop-color:#FFDAA8"/>
			<stop  offset="0.7812" style="stop-color:#FFD9A7"/>
			<stop  offset="0.8125" style="stop-color:#FFD8A6"/>
			<stop  offset="0.875" style="stop-color:#FFD8A6"/>
			<stop  offset="1" style="stop-color:#FFD8A6"/>
		</linearGradient>
		
			<path style="fill:none;stroke:url(#SVGID_00000076578079088876154440000006979235185913864363_);stroke-width:8.5211;stroke-miterlimit:2.3549;" d="
			M21.7,38.6c6.8,16.7,21.8,25.6,40.2,25.6 M61.9,64.2c18.5,0,33.4-8.9,40.2-25.6 M61.9,46.7c9.7,0,17.6-7.9,17.6-17.6
			c0,0,0.4-5.8-4.4-11.2 M61.9,28.1V5.5 M48.8,18c-4.8,5.3-4.4,11.2-4.4,11.2c0,9.7,7.9,17.6,17.6,17.6 M118.9,98.8
			c-12,5.4-18.8,2.1-30.5,0.3c-14.4-2.2-26.3,3.5-26.3,18.5 M62.1,117.6c0-15-11.9-20.7-26.3-18.5c-11.6,1.8-18.5,5.1-30.5-0.3
			 M7.8,64.5c12.3,19.3,38.8,7,54.4,22.2c15.4-15.7,41.4-3.6,55.1-21.6"/>
	</g>
</g>
<g>
	<g transform="translate(152.311683, 254.635368)">
		<g>
			<path class="st2" d="M84.3-238.4l0.8-4.2H64.1l-0.8,4.2h7.9L67.7-219h5.3l3.4-19.4H84.3z"/>
		</g>
	</g>
</g>
<g>
	<g transform="translate(176.132811, 254.635368)">
		<g>
			<path class="st2" d="M73.4-237.7c-1.7,0-3.1,0.3-4.5,1.2l-1.9,2l1.7-9.8h-5.4L58.9-219h5.4l1.4-8.3c0.9-4.7,2.7-6.6,4.9-6.7
				c2,0,2.7,1.1,2.7,2.7c0,0.7-0.1,1.6-0.3,2.9l-1.7,9.4h5.3l1.9-10.5c0.3-1.7,0.4-2.6,0.4-3.6C78.9-235.8,77.1-237.7,73.4-237.7z"
				/>
		</g>
	</g>
</g>
<g>
	<g transform="translate(200.105916, 254.635368)">
		<g>
			<path class="st2" d="M62.3-226.7H75c0.4-1.1,0.6-2.5,0.6-3.6c0-4-2.6-7.4-8-7.4c-6.5,0-10.8,5.1-10.8,11.7c0,5.3,3.6,7.5,8.1,7.5
				c4.7,0,8.2-2.2,9.6-6.4h-5.3c-0.6,1.7-2.1,2.7-3.9,2.7c-1.8,0-3.1-1.1-3.1-3.8V-226.7z M67.1-234c2,0,3,1.3,3,3.3
				c0,0.2,0,0.3,0,0.6h-7.3C63.6-232.5,65.1-234,67.1-234z"/>
		</g>
	</g>
</g>
<g>
	<g transform="translate(78.178876, 293.635366)">
		<g>
			<path class="st2" d="M103.3-239.3v6.4h7.3c-0.9,4.6-3.9,7-8,7c-5.1,0-9.2-3.9-9.2-12.9c0-8,4-12.4,9.3-12.4
				c4.4,0,6.9,2.2,7.8,6.4l0.1,0.5h8.1l-0.1-0.5c-0.7-7.1-5.8-12.5-15.9-12.5c-10,0-18,6.8-18,18.9c0,11.7,6.5,18.5,16.3,18.5
				c3.9,0,6.5-0.8,8.6-2.7l1.6-3.8l0.6,5.7h6.5v-18.7H103.3z"/>
		</g>
	</g>
</g>
<g>
	<g transform="translate(106.559077, 293.635366)">
		<g>
			<path class="st2" d="M111.1-249.1c-1.6,0-3.7,0.7-5.1,2.2L104-243v-5.3h-8.2v27.8h8.2v-11.6c0-7.9,2.8-10.5,9.2-10.1v-6.6
				C112.6-249,112-249.1,111.1-249.1z"/>
		</g>
	</g>
</g>
<g>
	<g transform="translate(121.679983, 293.635366)">
		<g>
			<path class="st2" d="M127.6-234.9c0-7.4-4.6-14.1-13.5-14.1c-8.8,0-14.4,6.4-14.4,14.7c0,9.8,6.1,14.6,13.9,14.6
				c6.8,0,12-3.4,13.5-9.8H119c-0.5,2.6-2.4,4.2-5.3,4.2c-3.1,0-5.4-1.6-5.8-6.9h19.5C127.5-233.3,127.6-234.2,127.6-234.9z
				 M113.7-243.4c3,0,4.9,2,5.3,6h-11C108.8-241.6,110.8-243.4,113.7-243.4z"/>
		</g>
	</g>
</g>
<g>
	<g transform="translate(144.019421, 293.635366)">
		<g>
			<path class="st2" d="M135.9-234.9c0-7.4-4.6-14.1-13.5-14.1c-8.8,0-14.4,6.4-14.4,14.7c0,9.8,6.1,14.6,13.9,14.6
				c6.8,0,12-3.4,13.5-9.8h-8.1c-0.5,2.6-2.4,4.2-5.3,4.2c-3.1,0-5.4-1.6-5.8-6.9h19.5C135.9-233.3,135.9-234.2,135.9-234.9z
				 M122.1-243.4c3,0,4.9,2,5.3,6h-11C117.1-241.6,119.2-243.4,122.1-243.4z"/>
		</g>
	</g>
</g>
<g>
	<g transform="translate(166.358859, 293.635366)">
		<g>
			<path class="st2" d="M144.9-241.4c-0.6-4.9-4-7.7-9.9-7.7c-2.6,0-4.6,0.5-6.5,1.8l-2.3,3.3v-4.4h-8.2v27.8h8.2v-12.9
				c0-7.1,2.4-10,5.6-10c3.2,0,4.8,1.8,5,4.6c0.1,1.4,0.1,2.8,0.1,3.9v14.5h8.2v-15.7C145.2-238.5,145.2-240,144.9-241.4z"/>
		</g>
	</g>
</g>
<g>
	<g transform="translate(190.331964, 293.635366)">
		<g>
			<path class="st2" d="M138.2-233.1v-4.5h-12.5v4.5H138.2z"/>
		</g>
	</g>
</g>
<g>
	<g transform="translate(201.881603, 293.635366)">
		<g>
			<path class="st2" d="M154.8-240c3.6-1.3,5.5-3.8,5.5-7.3c0-4.8-3.3-8.3-9.2-9.1c-1.8-0.2-2.8-0.2-4.6-0.2h-13.7v36h13.7
				c2.1,0,3.3,0,5.1-0.2c4.9-0.6,10.1-3.9,10.1-10.6C161.6-235.9,159.4-238.8,154.8-240z M140.9-250.2h4.7c0.8,0,1.8,0.1,2.5,0.2
				c2.1,0.3,3.5,1.5,3.5,3.9c0,2.4-1.3,3.6-3.5,4c-0.7,0.1-1.6,0.2-2.4,0.2h-4.9V-250.2z M149-227c-0.7,0.1-1.5,0.1-2.4,0.1h-5.7
				v-9.1h5.4c0.8,0,1.7,0,2.5,0.1c2.3,0.2,4.2,1.6,4.2,4.5C153.1-228.7,151.2-227.2,149-227z"/>
		</g>
	</g>
</g>
<g>
	<g transform="translate(227.260421, 293.635366)">
		<g>
			<path class="st2" d="M153.8-249.1c-9.2,0-14.7,6-14.7,14.6c0,8.7,5.4,14.7,14.7,14.7c9.2,0,14.7-6,14.7-14.7
				C168.5-243.1,163-249.1,153.8-249.1z M153.8-225.4c-3.9,0-6.3-3.2-6.3-9c0-5.8,2.4-9,6.3-9c3.9,0,6.2,3.2,6.2,9
				C160-228.7,157.7-225.4,153.8-225.4z"/>
		</g>
	</g>
</g>
<g>
	<g transform="translate(250.54966, 293.635366)">
		<g>
			<path class="st2" d="M162.5-249.1c-9.2,0-14.7,6-14.7,14.6c0,8.7,5.4,14.7,14.7,14.7c9.2,0,14.7-6,14.7-14.7
				C177.2-243.1,171.7-249.1,162.5-249.1z M162.5-225.4c-3.9,0-6.3-3.2-6.3-9c0-5.8,2.4-9,6.3-9c3.9,0,6.2,3.2,6.2,9
				C168.7-228.7,166.4-225.4,162.5-225.4z"/>
		</g>
	</g>
</g>
<g>
	<g transform="translate(273.838912, 293.635366)">
		<g>
			<path class="st2" d="M168.6-231.2l8.1,10.6h10.2l-12.2-15l12.1-12.8H177l-10.5,12.2v-22.8h-8.2v38.4h8.2v-8.3L168.6-231.2z"/>
		</g>
	</g>
</g>
<g>
	<g transform="translate(145.813086, 321.745378)">
		<g>
			<path class="st3" d="M203-234.9c0.1-0.5,0.2-0.9,0.3-1.2c0.1-0.3,0.1-0.6,0.1-0.7c0-0.3-0.2-0.5-0.6-0.6c-0.4-0.1-1-0.2-2-0.2
				l0.3-1.1h5.3l-3,11.1c-0.4,1.4-0.7,2.7-1,3.7c-0.3,1-0.5,1.8-0.6,2.5c-0.2,0.7-0.3,1.3-0.3,1.7c0,0.4-0.1,0.8-0.1,1.1
				c0,0.4,0.1,0.7,0.2,0.9c0.1,0.2,0.3,0.2,0.5,0.2c0.4,0,0.8-0.3,1.3-1c0.5-0.7,0.9-1.6,1.3-2.7l1,0.2c-0.6,1.8-1.3,3.2-2,4
				c-0.7,0.8-1.6,1.3-2.5,1.3c-0.7,0-1.2-0.2-1.5-0.6c-0.4-0.4-0.5-1-0.5-1.8c0-0.2,0-0.4,0-0.6c0-0.2,0.1-0.4,0.2-0.6l-0.2-0.1
				c-0.7,1.2-1.5,2.2-2.5,2.8c-1,0.6-1.9,1-2.8,1c-0.5,0-0.9-0.1-1.3-0.3c-0.4-0.2-0.8-0.5-1.1-0.9c-0.3-0.4-0.5-0.8-0.7-1.3
				c-0.2-0.5-0.3-1.1-0.3-1.8c0-0.8,0.1-1.6,0.4-2.4c0.3-0.9,0.6-1.7,1-2.5c0.4-0.8,0.9-1.6,1.5-2.3c0.6-0.7,1.2-1.3,1.8-1.9
				c0.6-0.5,1.3-1,2-1.3c0.7-0.3,1.3-0.5,2-0.5c0.6,0,1.1,0.1,1.4,0.4c0.3,0.2,0.6,0.6,1,1.1L203-234.9z M199.2-229.3
				c-0.5,0-1,0.2-1.5,0.5c-0.5,0.3-0.9,0.7-1.4,1.2c-0.5,0.5-0.9,1.1-1.3,1.7c-0.4,0.7-0.7,1.3-1,2.1c-0.3,0.7-0.5,1.4-0.7,2.2
				c-0.2,0.7-0.3,1.4-0.3,2c0,0.7,0.2,1.2,0.5,1.6c0.3,0.4,0.8,0.6,1.3,0.6c0.4,0,0.8-0.2,1.3-0.5c0.4-0.3,0.9-0.8,1.3-1.3
				c0.4-0.6,0.8-1.2,1.2-1.9c0.4-0.7,0.7-1.4,1-2.2c0.3-0.7,0.5-1.5,0.7-2.2c0.2-0.7,0.3-1.4,0.3-2c0-0.6-0.1-1-0.3-1.3
				C200-229.1,199.7-229.3,199.2-229.3z"/>
		</g>
	</g>
</g>
<g>
	<g transform="translate(161.388373, 321.745378)">
		<g>
			<path class="st3" d="M199.6-225c0.3-0.7,0.4-1.3,0.5-1.7c0.1-0.4,0.2-0.8,0.2-1.1c0-0.3,0-0.4-0.1-0.5c-0.1-0.1-0.2-0.1-0.3-0.1
				c-0.2,0-0.4,0.1-0.7,0.3c-0.2,0.2-0.5,0.4-0.7,0.7c-0.2,0.3-0.5,0.5-0.6,0.8c-0.2,0.2-0.3,0.4-0.4,0.6l-0.8-0.5
				c0.2-0.4,0.5-0.9,0.9-1.4c0.4-0.5,0.8-1,1.3-1.4c0.5-0.4,1-0.8,1.5-1.1c0.5-0.3,1-0.4,1.5-0.4c0.5,0,0.8,0.1,1,0.4
				c0.2,0.3,0.3,0.7,0.3,1.4c0,0.5-0.2,1.2-0.5,2.1c-0.3,0.9-0.7,2-1.2,3.5l-1,2.8c0,0.1-0.1,0.2-0.2,0.4c-0.1,0.2-0.1,0.4-0.2,0.6
				c-0.1,0.2-0.1,0.4-0.2,0.6c0,0.2-0.1,0.4-0.1,0.5c0,0.2,0,0.3,0.1,0.4c0.1,0.1,0.2,0.2,0.5,0.2c0.3,0,0.5-0.1,0.8-0.3
				c0.3-0.2,0.6-0.5,0.9-0.8c0.3-0.3,0.5-0.6,0.7-0.9c0.2-0.3,0.4-0.6,0.5-0.8l0.8,0.5c-0.2,0.4-0.5,0.9-0.9,1.5
				c-0.4,0.5-0.8,1-1.3,1.5c-0.5,0.4-1,0.8-1.6,1.1c-0.6,0.3-1.2,0.5-1.8,0.5c-0.5,0-0.9-0.1-1.2-0.4c-0.3-0.3-0.4-0.7-0.4-1.4
				c0-0.5,0.1-1.1,0.3-1.7c0.2-0.6,0.4-1.4,0.8-2.3L199.6-225z M203.6-235.3c-0.5,0-0.9-0.2-1.2-0.5c-0.3-0.3-0.5-0.7-0.5-1.2
				c0-0.5,0.2-0.9,0.5-1.3c0.3-0.3,0.8-0.5,1.2-0.5c0.5,0,0.9,0.2,1.3,0.5c0.3,0.3,0.5,0.8,0.5,1.2c0,0.5-0.2,0.9-0.5,1.2
				C204.5-235.4,204.1-235.3,203.6-235.3z"/>
		</g>
	</g>
</g>
<g>
	<g transform="translate(171.885664, 321.745378)">
		<g>
			<path class="st3" d="M211.8-213.9c0,0.8-0.2,1.5-0.5,2.1c-0.3,0.6-0.8,1.2-1.5,1.6c-0.6,0.5-1.4,0.8-2.3,1
				c-0.9,0.2-1.9,0.4-3,0.4c-1,0-1.9-0.1-2.8-0.3c-0.8-0.2-1.5-0.5-2.1-0.8c-0.6-0.3-1.1-0.8-1.4-1.2c-0.3-0.5-0.5-1-0.5-1.6
				c0-0.7,0.2-1.4,0.7-1.9c0.5-0.5,1.1-0.7,1.8-0.7c0.2,0,0.4,0,0.6,0.1c0.2,0.1,0.5,0.2,0.8,0.3c-1,0.4-1.5,1.2-1.5,2.4
				c0,0.8,0.4,1.4,1.2,1.8c0.8,0.4,1.9,0.7,3.2,0.7c0.7,0,1.4-0.1,2-0.3c0.6-0.2,1.2-0.4,1.6-0.6c0.4-0.3,0.8-0.5,1-0.9
				c0.3-0.3,0.4-0.6,0.4-0.9c0-0.5-0.3-1-0.9-1.4c-0.6-0.4-1.5-0.7-2.6-0.9c-2-0.3-3.5-0.7-4.4-1.2c-0.9-0.5-1.4-1.1-1.4-1.9
				c0-0.5,0.2-1,0.7-1.3c0.5-0.4,1.3-0.7,2.5-1.1l0-0.1c-1.4-1-2.1-2.3-2.1-3.8c0-0.8,0.2-1.6,0.5-2.4c0.4-0.8,0.8-1.4,1.4-2
				c0.6-0.6,1.3-1,2.1-1.4c0.8-0.3,1.6-0.5,2.5-0.5c1.3,0,2.5,0.5,3.4,1.5c0.9-1,1.7-1.5,2.5-1.5c0.6,0,1.1,0.2,1.5,0.5
				c0.4,0.4,0.7,0.8,0.7,1.2c0,0.4-0.1,0.7-0.4,0.9c-0.2,0.2-0.6,0.4-0.9,0.4c-0.3,0-0.5-0.1-0.6-0.2c-0.2-0.1-0.3-0.2-0.4-0.4
				c-0.1-0.2-0.2-0.3-0.4-0.4c-0.1-0.1-0.3-0.2-0.6-0.2c-0.1,0-0.3,0-0.4,0.1c-0.1,0-0.3,0.2-0.6,0.4c0.1,0.3,0.2,0.5,0.2,0.7
				c0,0.2,0.1,0.5,0.1,0.9c0,2-0.6,3.6-1.7,4.8c-1.1,1.2-2.7,1.9-4.6,2c-0.9,0.1-1.5,0.2-1.9,0.3c-0.4,0.1-0.6,0.4-0.6,0.7
				c0,0.4,0.2,0.7,0.6,0.9c0.4,0.2,0.9,0.3,1.5,0.5c0.6,0.1,1.3,0.3,2,0.4c0.7,0.1,1.4,0.3,2,0.6c0.6,0.2,1.1,0.6,1.6,1
				C211.6-215.2,211.8-214.7,211.8-213.9z M206.1-221.2c0.4,0,0.9-0.2,1.3-0.5c0.4-0.4,0.8-0.8,1.1-1.4c0.3-0.6,0.6-1.2,0.8-2
				c0.2-0.7,0.3-1.5,0.3-2.3c0-0.7-0.2-1.3-0.5-1.7c-0.3-0.4-0.8-0.6-1.3-0.6c-0.4,0-0.9,0.2-1.3,0.6c-0.4,0.4-0.8,0.9-1.2,1.4
				c-0.4,0.6-0.7,1.3-0.9,2c-0.2,0.7-0.3,1.5-0.3,2.2c0,0.7,0.2,1.3,0.5,1.7C205-221.4,205.5-221.2,206.1-221.2z"/>
		</g>
	</g>
</g>
<g>
	<g transform="translate(186.501328, 321.745378)">
		<g>
			<path class="st3" d="M208.9-225c0.3-0.7,0.4-1.3,0.5-1.7c0.1-0.4,0.2-0.8,0.2-1.1c0-0.3,0-0.4-0.1-0.5c-0.1-0.1-0.2-0.1-0.3-0.1
				c-0.2,0-0.4,0.1-0.7,0.3c-0.2,0.2-0.5,0.4-0.7,0.7c-0.2,0.3-0.5,0.5-0.6,0.8c-0.2,0.2-0.3,0.4-0.4,0.6l-0.8-0.5
				c0.2-0.4,0.5-0.9,0.9-1.4c0.4-0.5,0.8-1,1.3-1.4c0.5-0.4,1-0.8,1.5-1.1c0.5-0.3,1-0.4,1.5-0.4c0.5,0,0.8,0.1,1,0.4
				c0.2,0.3,0.3,0.7,0.3,1.4c0,0.5-0.2,1.2-0.5,2.1c-0.3,0.9-0.7,2-1.2,3.5l-1,2.8c0,0.1-0.1,0.2-0.2,0.4c-0.1,0.2-0.1,0.4-0.2,0.6
				c-0.1,0.2-0.1,0.4-0.2,0.6c0,0.2-0.1,0.4-0.1,0.5c0,0.2,0,0.3,0.1,0.4c0.1,0.1,0.2,0.2,0.5,0.2c0.3,0,0.5-0.1,0.8-0.3
				c0.3-0.2,0.6-0.5,0.9-0.8c0.3-0.3,0.5-0.6,0.7-0.9c0.2-0.3,0.4-0.6,0.5-0.8l0.8,0.5c-0.2,0.4-0.5,0.9-0.9,1.5
				c-0.4,0.5-0.8,1-1.3,1.5c-0.5,0.4-1,0.8-1.6,1.1c-0.6,0.3-1.2,0.5-1.8,0.5c-0.5,0-0.9-0.1-1.2-0.4c-0.3-0.3-0.4-0.7-0.4-1.4
				c0-0.5,0.1-1.1,0.3-1.7c0.2-0.6,0.4-1.4,0.8-2.3L208.9-225z M213-235.3c-0.5,0-0.9-0.2-1.2-0.5c-0.3-0.3-0.5-0.7-0.5-1.2
				c0-0.5,0.2-0.9,0.5-1.3c0.3-0.3,0.8-0.5,1.2-0.5c0.5,0,0.9,0.2,1.3,0.5c0.3,0.3,0.5,0.8,0.5,1.2c0,0.5-0.2,0.9-0.5,1.2
				C213.9-235.4,213.4-235.3,213-235.3z"/>
		</g>
	</g>
</g>
<g>
	<g transform="translate(196.998621, 321.745378)">
		<g>
			<path class="st3" d="M215.7-228.2l-2.3,7.6c-0.3,1-0.5,1.7-0.5,2.3c0,0.2,0,0.3,0.1,0.4c0.1,0.1,0.2,0.2,0.4,0.2
				c0.3,0,0.7-0.1,1-0.4c0.4-0.2,0.7-0.5,1.1-0.9s0.6-0.7,0.9-1.1c0.3-0.4,0.5-0.6,0.6-0.8l0.8,0.5c-0.3,0.6-0.7,1.2-1.2,1.8
				c-0.5,0.6-1,1.1-1.5,1.5c-0.5,0.4-1.1,0.8-1.6,1.1c-0.5,0.3-1,0.4-1.5,0.4c-0.6,0-1.1-0.1-1.4-0.4c-0.3-0.3-0.4-0.7-0.4-1.4
				c0-0.4,0.1-0.9,0.2-1.5c0.1-0.6,0.3-1.5,0.6-2.6l2-6.7h-2.4l0.4-1.3h2.4l1.4-4.7h2.5l-1.4,4.7h3l-0.4,1.3H215.7z"/>
		</g>
	</g>
</g>
<g>
	<g transform="translate(207.91574, 321.745378)">
		<g>
			<path class="st3" d="M222.5-229.3c-0.7,0-1.4,0.3-2.2,1c-0.7,0.6-1.4,1.4-2,2.4c-0.6,1-1.1,2-1.5,3.1c-0.4,1.1-0.6,2.1-0.6,3.1
				c0,0.7,0.1,1.2,0.4,1.6c0.3,0.4,0.7,0.6,1.1,0.6c0.4,0,0.9-0.2,1.3-0.5c0.5-0.3,0.9-0.8,1.3-1.4c0.4-0.6,0.8-1.2,1.2-1.9
				c0.4-0.7,0.7-1.4,1-2.2c0.3-0.8,0.5-1.5,0.7-2.3c0.2-0.7,0.3-1.4,0.3-2c0-0.5-0.1-0.8-0.3-1.1
				C223.1-229.2,222.8-229.3,222.5-229.3z M225.3-230.5h2.3l-1.6,4.2c-0.3,0.7-0.5,1.4-0.8,2.2c-0.2,0.8-0.5,1.6-0.7,2.3
				c-0.2,0.7-0.3,1.4-0.5,2c-0.1,0.6-0.2,1.1-0.2,1.4c0,0.5,0.2,0.8,0.5,0.8c0.3,0,0.6-0.3,1.1-0.8c0.5-0.5,1-1.2,1.7-2.1l0.7,0.6
				c-0.8,1.4-1.6,2.4-2.5,3.2c-0.9,0.7-1.7,1.1-2.6,1.1c-0.4,0-0.7-0.2-1-0.5c-0.2-0.3-0.3-0.9-0.3-1.6c0-0.2,0-0.4,0-0.6
				c0-0.2,0-0.5,0.1-0.9l-0.1,0c-0.3,0.5-0.6,1-1,1.4c-0.4,0.4-0.8,0.8-1.2,1.1c-0.4,0.3-0.9,0.6-1.4,0.7c-0.5,0.2-0.9,0.3-1.4,0.3
				c-0.9,0-1.7-0.3-2.2-1.1c-0.5-0.7-0.8-1.7-0.8-2.9c0-1.3,0.3-2.5,0.8-3.9c0.5-1.3,1.2-2.5,2.1-3.6c0.8-1.1,1.8-2,2.8-2.6
				c1-0.7,2-1,3-1c0.6,0,1.1,0.1,1.5,0.4c0.4,0.3,0.7,0.7,0.9,1.4L225.3-230.5z"/>
		</g>
	</g>
</g>
<g>
	<g transform="translate(222.93124, 321.745378)">
		<g>
			<path class="st3" d="M224-234.9c0.1-0.3,0.2-0.7,0.3-1c0.1-0.3,0.1-0.6,0.1-0.8c0-0.6-0.7-1-2.1-1l0.2-0.8l5-0.2l-4.9,18.1
				c-0.2,0.5-0.3,0.9-0.3,1.3c-0.1,0.4-0.1,0.7-0.1,0.9c0,0.2,0,0.3,0.1,0.4c0.1,0.1,0.2,0.2,0.5,0.2c0.3,0,0.6-0.1,0.9-0.4
				c0.3-0.2,0.6-0.5,0.9-0.9c0.3-0.3,0.6-0.7,0.8-1.1c0.2-0.4,0.4-0.6,0.5-0.8l0.8,0.5c-0.3,0.6-0.6,1.2-1.1,1.8
				c-0.4,0.6-0.9,1.1-1.4,1.5c-0.5,0.4-1,0.8-1.5,1.1c-0.5,0.3-1,0.4-1.4,0.4c-0.6,0-1.1-0.1-1.4-0.4c-0.3-0.3-0.5-0.7-0.5-1.4
				c0-0.4,0.1-0.9,0.2-1.5c0.1-0.6,0.3-1.5,0.6-2.6L224-234.9z"/>
		</g>
	</g>
</g>
</svg>
