<svg xmlns="http://www.w3.org/2000/svg" xmlns:xlink="http://www.w3.org/1999/xlink" width="500" zoomAndPan="magnify" viewBox="0 0 375 374.999991" height="500" preserveAspectRatio="xMidYMid meet" version="1.0"><defs><g/><clipPath id="0a00946f24"><path d="M 120.816406 78.179688 L 254.316406 78.179688 L 254.316406 211.679688 L 120.816406 211.679688 Z M 120.816406 78.179688 " clip-rule="nonzero"/></clipPath><linearGradient x1="-38.179506" gradientTransform="matrix(1, 0, 0, 1, 0.0000285083, 0.0000546085)" y1="665.644198" x2="838.822709" gradientUnits="userSpaceOnUse" y2="159.306185" id="02222093cb"><stop stop-opacity="1" stop-color="rgb(100%, 100%, 78.399658%)" offset="0"/><stop stop-opacity="1" stop-color="rgb(100%, 100%, 78.399658%)" offset="0.0625"/><stop stop-opacity="1" stop-color="rgb(100%, 99.923706%, 78.33252%)" offset="0.078125"/><stop stop-opacity="1" stop-color="rgb(100%, 99.681091%, 78.123474%)" offset="0.09375"/><stop stop-opacity="1" stop-color="rgb(100%, 99.349976%, 77.835083%)" offset="0.109375"/><stop stop-opacity="1" stop-color="rgb(100%, 99.020386%, 77.548218%)" offset="0.125"/><stop stop-opacity="1" stop-color="rgb(100%, 98.68927%, 77.261353%)" offset="0.140625"/><stop stop-opacity="1" stop-color="rgb(100%, 98.358154%, 76.972961%)" offset="0.15625"/><stop stop-opacity="1" stop-color="rgb(100%, 98.028564%, 76.686096%)" offset="0.171875"/><stop stop-opacity="1" stop-color="rgb(100%, 97.697449%, 76.399231%)" offset="0.1875"/><stop stop-opacity="1" stop-color="rgb(100%, 97.366333%, 76.11084%)" offset="0.203125"/><stop stop-opacity="1" stop-color="rgb(100%, 97.036743%, 75.823975%)" offset="0.21875"/><stop stop-opacity="1" stop-color="rgb(100%, 96.705627%, 75.537109%)" offset="0.234375"/><stop stop-opacity="1" stop-color="rgb(100%, 96.376038%, 75.248718%)" offset="0.25"/><stop stop-opacity="1" stop-color="rgb(100%, 96.044922%, 74.961853%)" offset="0.265625"/><stop stop-opacity="1" stop-color="rgb(100%, 95.713806%, 74.674988%)" offset="0.28125"/><stop stop-opacity="1" stop-color="rgb(100%, 95.384216%, 74.386597%)" offset="0.296875"/><stop stop-opacity="1" stop-color="rgb(100%, 95.053101%, 74.099731%)" offset="0.3125"/><stop stop-opacity="1" stop-color="rgb(100%, 94.721985%, 73.812866%)" offset="0.328125"/><stop stop-opacity="1" stop-color="rgb(100%, 94.392395%, 73.524475%)" offset="0.34375"/><stop stop-opacity="1" stop-color="rgb(100%, 94.061279%, 73.23761%)" offset="0.359375"/><stop stop-opacity="1" stop-color="rgb(100%, 93.730164%, 72.950745%)" offset="0.363118"/><stop stop-opacity="1" stop-color="rgb(100%, 93.565369%, 72.807312%)" offset="0.375"/><stop stop-opacity="1" stop-color="rgb(100%, 93.400574%, 72.662354%)" offset="0.390625"/><stop stop-opacity="1" stop-color="rgb(100%, 93.069458%, 72.375488%)" offset="0.40625"/><stop stop-opacity="1" stop-color="rgb(100%, 92.738342%, 72.088623%)" offset="0.421875"/><stop stop-opacity="1" stop-color="rgb(100%, 92.408752%, 71.800232%)" offset="0.4375"/><stop stop-opacity="1" stop-color="rgb(100%, 92.077637%, 71.513367%)" offset="0.453125"/><stop stop-opacity="1" stop-color="rgb(100%, 91.748047%, 71.226501%)" offset="0.46875"/><stop stop-opacity="1" stop-color="rgb(100%, 91.416931%, 70.93811%)" offset="0.484375"/><stop stop-opacity="1" stop-color="rgb(100%, 91.085815%, 70.651245%)" offset="0.5"/><stop stop-opacity="1" stop-color="rgb(100%, 90.756226%, 70.36438%)" offset="0.515625"/><stop stop-opacity="1" stop-color="rgb(100%, 90.42511%, 70.077515%)" offset="0.53125"/><stop stop-opacity="1" stop-color="rgb(100%, 90.093994%, 69.789124%)" offset="0.546875"/><stop stop-opacity="1" stop-color="rgb(100%, 89.764404%, 69.502258%)" offset="0.5625"/><stop stop-opacity="1" stop-color="rgb(100%, 89.433289%, 69.215393%)" offset="0.578125"/><stop stop-opacity="1" stop-color="rgb(100%, 89.102173%, 68.927002%)" offset="0.59375"/><stop stop-opacity="1" stop-color="rgb(100%, 88.772583%, 68.640137%)" offset="0.609375"/><stop stop-opacity="1" stop-color="rgb(100%, 88.441467%, 68.353271%)" offset="0.625"/><stop stop-opacity="1" stop-color="rgb(100%, 88.110352%, 68.06488%)" offset="0.636882"/><stop stop-opacity="1" stop-color="rgb(100%, 87.945557%, 67.921448%)" offset="0.640625"/><stop stop-opacity="1" stop-color="rgb(100%, 87.780762%, 67.778015%)" offset="0.65625"/><stop stop-opacity="1" stop-color="rgb(100%, 87.449646%, 67.49115%)" offset="0.671875"/><stop stop-opacity="1" stop-color="rgb(100%, 87.120056%, 67.202759%)" offset="0.6875"/><stop stop-opacity="1" stop-color="rgb(100%, 86.78894%, 66.915894%)" offset="0.703125"/><stop stop-opacity="1" stop-color="rgb(100%, 86.457825%, 66.629028%)" offset="0.71875"/><stop stop-opacity="1" stop-color="rgb(100%, 86.128235%, 66.340637%)" offset="0.734375"/><stop stop-opacity="1" stop-color="rgb(100%, 85.797119%, 66.053772%)" offset="0.75"/><stop stop-opacity="1" stop-color="rgb(100%, 85.466003%, 65.766907%)" offset="0.765625"/><stop stop-opacity="1" stop-color="rgb(100%, 85.136414%, 65.478516%)" offset="0.78125"/><stop stop-opacity="1" stop-color="rgb(100%, 84.83429%, 65.216064%)" offset="0.8125"/><stop stop-opacity="1" stop-color="rgb(100%, 84.698486%, 65.098572%)" offset="0.875"/><stop stop-opacity="1" stop-color="rgb(100%, 84.698486%, 65.098572%)" offset="1"/></linearGradient></defs><g clip-path="url(#0a00946f24)"><path stroke-linecap="butt" transform="matrix(0.176616, 0, 0, 0.176849, 120.840825, 78.179188)" fill="none" stroke-linejoin="miter" d="M 132.210893 234.99723 C 173.990229 336.889251 265.157206 391.314124 377.799957 391.314124 M 377.799957 391.314124 C 490.442707 391.314124 581.609685 336.889251 623.38902 234.99723 M 377.799957 284.761532 C 437.02974 284.761532 485.068235 236.742184 485.068235 177.502123 C 485.068235 177.502123 487.633826 142.050857 458.041052 109.537296 M 377.799957 171.361655 L 377.799957 33.466167 M 297.580979 109.537296 C 267.988204 142.050857 270.553796 177.502123 270.553796 177.502123 C 270.553796 236.742184 318.570174 284.761532 377.799957 284.761532 M 725.150123 602.077978 C 651.942288 635.143739 610.251421 614.86694 539.233186 604.198428 C 451.118378 590.967706 378.795229 625.425012 378.795229 716.913577 M 378.795229 716.913577 C 378.795229 625.425012 306.472081 590.967706 218.357273 604.198428 C 147.339038 614.86694 105.648171 635.143739 32.440336 602.077978 M 47.192489 393.257869 C 122.236049 510.589414 283.73563 436.042358 379.10487 528.856203 C 473.058611 432.905859 631.771428 507.143683 715.462802 397.388328 " stroke="url(#02222093cb)" stroke-width="52" stroke-miterlimit="10"/></g><g fill="#ffffff" fill-opacity="1"><g transform="translate(78.178876, 254.635368)"><g><path d="M 15.464844 -13.640625 L 15.464844 -9.003906 L 20.785156 -9.003906 C 20.097656 -5.660156 17.972656 -3.875 14.933594 -3.875 C 11.207031 -3.875 8.246094 -6.726562 8.246094 -13.296875 C 8.246094 -19.113281 11.171875 -22.339844 15.007812 -22.339844 C 18.199219 -22.339844 20.0625 -20.707031 20.667969 -17.667969 L 20.746094 -17.289062 L 26.671875 -17.289062 L 26.632812 -17.667969 C 26.101562 -22.835938 22.378906 -26.75 15.085938 -26.75 C 7.828125 -26.75 1.976562 -21.769531 1.976562 -12.957031 C 1.976562 -4.40625 6.726562 0.53125 13.867188 0.53125 C 16.71875 0.53125 18.617188 -0.0390625 20.097656 -1.40625 L 21.277344 -4.140625 L 21.734375 0 L 26.445312 0 L 26.445312 -13.640625 Z M 15.464844 -13.640625 "/></g></g></g><g fill="#ffffff" fill-opacity="1"><g transform="translate(106.559077, 254.635368)"><g><path d="M 13.414062 -20.785156 C 12.234375 -20.785156 10.753906 -20.25 9.726562 -19.1875 L 8.207031 -16.375 L 8.207031 -20.25 L 2.242188 -20.25 L 2.242188 0 L 8.207031 0 L 8.207031 -8.472656 C 8.207031 -14.210938 10.21875 -16.109375 14.933594 -15.804688 L 14.933594 -20.632812 C 14.476562 -20.707031 14.058594 -20.785156 13.414062 -20.785156 Z M 13.414062 -20.785156 "/></g></g></g><g fill="#ffffff" fill-opacity="1"><g transform="translate(121.679983, 254.635368)"><g><path d="M 21.277344 -10.488281 C 21.277344 -15.882812 17.933594 -20.785156 11.472656 -20.785156 C 5.054688 -20.785156 0.988281 -16.148438 0.988281 -10.070312 C 0.988281 -2.925781 5.433594 0.53125 11.09375 0.53125 C 16.035156 0.53125 19.832031 -1.9375 20.933594 -6.609375 L 15.046875 -6.609375 C 14.703125 -4.710938 13.296875 -3.570312 11.207031 -3.570312 C 8.96875 -3.570312 7.296875 -4.710938 6.953125 -8.585938 L 21.164062 -8.585938 C 21.238281 -9.308594 21.277344 -9.953125 21.277344 -10.488281 Z M 11.207031 -16.679688 C 13.414062 -16.679688 14.742188 -15.199219 15.085938 -12.347656 L 7.105469 -12.347656 C 7.597656 -15.351562 9.082031 -16.679688 11.207031 -16.679688 Z M 11.207031 -16.679688 "/></g></g></g><g fill="#ffffff" fill-opacity="1"><g transform="translate(144.019421, 254.635368)"><g><path d="M 21.277344 -10.488281 C 21.277344 -15.882812 17.933594 -20.785156 11.472656 -20.785156 C 5.054688 -20.785156 0.988281 -16.148438 0.988281 -10.070312 C 0.988281 -2.925781 5.433594 0.53125 11.09375 0.53125 C 16.035156 0.53125 19.832031 -1.9375 20.933594 -6.609375 L 15.046875 -6.609375 C 14.703125 -4.710938 13.296875 -3.570312 11.207031 -3.570312 C 8.96875 -3.570312 7.296875 -4.710938 6.953125 -8.585938 L 21.164062 -8.585938 C 21.238281 -9.308594 21.277344 -9.953125 21.277344 -10.488281 Z M 11.207031 -16.679688 C 13.414062 -16.679688 14.742188 -15.199219 15.085938 -12.347656 L 7.105469 -12.347656 C 7.597656 -15.351562 9.082031 -16.679688 11.207031 -16.679688 Z M 11.207031 -16.679688 "/></g></g></g><g fill="#ffffff" fill-opacity="1"><g transform="translate(166.358859, 254.635368)"><g><path d="M 21.769531 -15.199219 C 21.316406 -18.730469 18.84375 -20.785156 14.589844 -20.785156 C 12.691406 -20.785156 11.246094 -20.402344 9.878906 -19.492188 L 8.207031 -17.058594 L 8.207031 -20.25 L 2.242188 -20.25 L 2.242188 0 L 8.207031 0 L 8.207031 -9.382812 C 8.207031 -14.550781 9.953125 -16.679688 12.308594 -16.679688 C 14.628906 -16.679688 15.769531 -15.386719 15.917969 -13.335938 C 15.996094 -12.308594 15.996094 -11.285156 15.996094 -10.523438 L 15.996094 0 L 21.960938 0 L 21.960938 -11.4375 C 21.960938 -13.070312 21.921875 -14.171875 21.769531 -15.199219 Z M 21.769531 -15.199219 "/></g></g></g><g fill="#ffffff" fill-opacity="1"><g transform="translate(190.331964, 254.635368)"><g><path d="M 10.335938 -9.117188 L 10.335938 -12.386719 L 1.214844 -12.386719 L 1.214844 -9.117188 Z M 10.335938 -9.117188 "/></g></g></g><g fill="#ffffff" fill-opacity="1"><g transform="translate(201.881603, 254.635368)"><g><path d="M 19.300781 -14.171875 C 21.921875 -15.085938 23.289062 -16.90625 23.289062 -19.453125 C 23.289062 -22.949219 20.859375 -25.53125 16.605469 -26.066406 C 15.273438 -26.214844 14.589844 -26.214844 13.222656 -26.214844 L 3.230469 -26.214844 L 3.230469 0 L 13.183594 0 C 14.742188 0 15.617188 0 16.90625 -0.152344 C 20.441406 -0.609375 24.242188 -3 24.242188 -7.863281 C 24.242188 -11.171875 22.644531 -13.296875 19.300781 -14.171875 Z M 9.195312 -21.582031 L 12.652344 -21.582031 C 13.261719 -21.582031 13.945312 -21.542969 14.476562 -21.46875 C 16.035156 -21.238281 17.058594 -20.402344 17.058594 -18.65625 C 17.058594 -16.90625 16.148438 -16.035156 14.515625 -15.769531 C 13.980469 -15.691406 13.375 -15.652344 12.765625 -15.652344 L 9.195312 -15.652344 Z M 15.085938 -4.710938 C 14.589844 -4.671875 13.980469 -4.671875 13.375 -4.671875 L 9.195312 -4.671875 L 9.195312 -11.285156 L 13.144531 -11.285156 C 13.753906 -11.285156 14.363281 -11.285156 14.96875 -11.207031 C 16.640625 -11.054688 18.007812 -10.070312 18.007812 -7.941406 C 18.007812 -5.964844 16.640625 -4.824219 15.085938 -4.710938 Z M 15.085938 -4.710938 "/></g></g></g><g fill="#ffffff" fill-opacity="1"><g transform="translate(227.260421, 254.635368)"><g><path d="M 11.664062 -20.785156 C 4.9375 -20.785156 0.988281 -16.453125 0.988281 -10.144531 C 0.988281 -3.835938 4.9375 0.53125 11.664062 0.53125 C 18.351562 0.53125 22.339844 -3.835938 22.339844 -10.144531 C 22.339844 -16.453125 18.351562 -20.785156 11.664062 -20.785156 Z M 11.664062 -3.570312 C 8.816406 -3.570312 7.105469 -5.925781 7.105469 -10.144531 C 7.105469 -14.363281 8.816406 -16.679688 11.664062 -16.679688 C 14.476562 -16.679688 16.1875 -14.363281 16.1875 -10.144531 C 16.1875 -5.925781 14.476562 -3.570312 11.664062 -3.570312 Z M 11.664062 -3.570312 "/></g></g></g><g fill="#ffffff" fill-opacity="1"><g transform="translate(250.54966, 254.635368)"><g><path d="M 11.664062 -20.785156 C 4.9375 -20.785156 0.988281 -16.453125 0.988281 -10.144531 C 0.988281 -3.835938 4.9375 0.53125 11.664062 0.53125 C 18.351562 0.53125 22.339844 -3.835938 22.339844 -10.144531 C 22.339844 -16.453125 18.351562 -20.785156 11.664062 -20.785156 Z M 11.664062 -3.570312 C 8.816406 -3.570312 7.105469 -5.925781 7.105469 -10.144531 C 7.105469 -14.363281 8.816406 -16.679688 11.664062 -16.679688 C 14.476562 -16.679688 16.1875 -14.363281 16.1875 -10.144531 C 16.1875 -5.925781 14.476562 -3.570312 11.664062 -3.570312 Z M 11.664062 -3.570312 "/></g></g></g><g fill="#ffffff" fill-opacity="1"><g transform="translate(273.838912, 254.635368)"><g><path d="M 9.765625 -7.75 L 15.652344 0 L 23.0625 0 L 14.171875 -10.90625 L 22.949219 -20.25 L 15.882812 -20.25 L 8.207031 -11.359375 L 8.207031 -27.925781 L 2.242188 -27.925781 L 2.242188 0 L 8.207031 0 L 8.207031 -6.042969 Z M 9.765625 -7.75 "/></g></g></g><g fill="#ffffc8" fill-opacity="1"><g transform="translate(145.813086, 282.745352)"><g><path d="M 9.359375 -13.84375 C 9.460938 -14.195312 9.539062 -14.492188 9.59375 -14.734375 C 9.65625 -14.972656 9.6875 -15.148438 9.6875 -15.265625 C 9.6875 -15.460938 9.550781 -15.597656 9.28125 -15.671875 C 9.007812 -15.753906 8.53125 -15.796875 7.84375 -15.796875 L 8.0625 -16.59375 L 11.921875 -16.59375 L 9.703125 -8.5 C 9.421875 -7.457031 9.1875 -6.566406 9 -5.828125 C 8.8125 -5.097656 8.660156 -4.484375 8.546875 -3.984375 C 8.429688 -3.484375 8.351562 -3.070312 8.3125 -2.75 C 8.28125 -2.4375 8.265625 -2.171875 8.265625 -1.953125 C 8.265625 -1.648438 8.3125 -1.4375 8.40625 -1.3125 C 8.5 -1.195312 8.617188 -1.140625 8.765625 -1.140625 C 9.054688 -1.140625 9.367188 -1.382812 9.703125 -1.875 C 10.046875 -2.375 10.351562 -3.019531 10.625 -3.8125 L 11.375 -3.640625 C 10.925781 -2.316406 10.429688 -1.34375 9.890625 -0.71875 C 9.347656 -0.101562 8.738281 0.203125 8.0625 0.203125 C 7.582031 0.203125 7.210938 0.0507812 6.953125 -0.25 C 6.691406 -0.5625 6.5625 -1.003906 6.5625 -1.578125 C 6.5625 -1.722656 6.570312 -1.875 6.59375 -2.03125 C 6.625 -2.195312 6.660156 -2.351562 6.703125 -2.5 L 6.546875 -2.546875 C 6.035156 -1.660156 5.421875 -0.976562 4.703125 -0.5 C 3.984375 -0.03125 3.296875 0.203125 2.640625 0.203125 C 2.296875 0.203125 1.972656 0.125 1.671875 -0.03125 C 1.378906 -0.1875 1.125 -0.398438 0.90625 -0.671875 C 0.695312 -0.941406 0.53125 -1.265625 0.40625 -1.640625 C 0.28125 -2.023438 0.21875 -2.453125 0.21875 -2.921875 C 0.21875 -3.492188 0.304688 -4.085938 0.484375 -4.703125 C 0.671875 -5.328125 0.921875 -5.925781 1.234375 -6.5 C 1.546875 -7.082031 1.90625 -7.632812 2.3125 -8.15625 C 2.726562 -8.675781 3.164062 -9.132812 3.625 -9.53125 C 4.082031 -9.925781 4.554688 -10.234375 5.046875 -10.453125 C 5.535156 -10.679688 6.015625 -10.796875 6.484375 -10.796875 C 6.929688 -10.796875 7.269531 -10.707031 7.5 -10.53125 C 7.738281 -10.363281 7.972656 -10.09375 8.203125 -9.71875 Z M 6.625 -9.734375 C 6.269531 -9.734375 5.914062 -9.625 5.5625 -9.40625 C 5.21875 -9.1875 4.878906 -8.894531 4.546875 -8.53125 C 4.210938 -8.164062 3.898438 -7.742188 3.609375 -7.265625 C 3.328125 -6.785156 3.078125 -6.285156 2.859375 -5.765625 C 2.648438 -5.242188 2.476562 -4.710938 2.34375 -4.171875 C 2.21875 -3.640625 2.15625 -3.144531 2.15625 -2.6875 C 2.15625 -2.195312 2.273438 -1.804688 2.515625 -1.515625 C 2.753906 -1.234375 3.078125 -1.09375 3.484375 -1.09375 C 3.785156 -1.09375 4.097656 -1.21875 4.421875 -1.46875 C 4.742188 -1.71875 5.054688 -2.039062 5.359375 -2.4375 C 5.660156 -2.84375 5.945312 -3.300781 6.21875 -3.8125 C 6.5 -4.320312 6.742188 -4.847656 6.953125 -5.390625 C 7.160156 -5.929688 7.320312 -6.460938 7.4375 -6.984375 C 7.5625 -7.515625 7.625 -7.992188 7.625 -8.421875 C 7.625 -8.835938 7.539062 -9.160156 7.375 -9.390625 C 7.21875 -9.617188 6.96875 -9.734375 6.625 -9.734375 Z M 6.625 -9.734375 "/></g></g></g><g fill="#ffffc8" fill-opacity="1"><g transform="translate(161.388373, 282.745352)"><g><path d="M 2.625 -6.59375 C 2.8125 -7.113281 2.941406 -7.535156 3.015625 -7.859375 C 3.097656 -8.179688 3.140625 -8.4375 3.140625 -8.625 C 3.140625 -8.8125 3.109375 -8.929688 3.046875 -8.984375 C 2.984375 -9.046875 2.921875 -9.078125 2.859375 -9.078125 C 2.710938 -9.078125 2.550781 -9.003906 2.375 -8.859375 C 2.207031 -8.722656 2.035156 -8.5625 1.859375 -8.375 C 1.679688 -8.1875 1.523438 -8 1.390625 -7.8125 C 1.265625 -7.632812 1.175781 -7.488281 1.125 -7.375 L 0.546875 -7.734375 C 0.703125 -8.035156 0.921875 -8.363281 1.203125 -8.71875 C 1.492188 -9.082031 1.816406 -9.414062 2.171875 -9.71875 C 2.535156 -10.03125 2.910156 -10.285156 3.296875 -10.484375 C 3.679688 -10.691406 4.050781 -10.796875 4.40625 -10.796875 C 4.738281 -10.796875 4.988281 -10.695312 5.15625 -10.5 C 5.320312 -10.3125 5.40625 -9.960938 5.40625 -9.453125 C 5.40625 -9.066406 5.285156 -8.546875 5.046875 -7.890625 C 4.816406 -7.242188 4.515625 -6.40625 4.140625 -5.375 L 3.40625 -3.359375 C 3.375 -3.296875 3.332031 -3.191406 3.28125 -3.046875 C 3.238281 -2.910156 3.191406 -2.765625 3.140625 -2.609375 C 3.097656 -2.453125 3.0625 -2.300781 3.03125 -2.15625 C 3 -2.007812 2.984375 -1.890625 2.984375 -1.796875 C 2.984375 -1.679688 3.015625 -1.578125 3.078125 -1.484375 C 3.148438 -1.390625 3.257812 -1.34375 3.40625 -1.34375 C 3.601562 -1.34375 3.804688 -1.425781 4.015625 -1.59375 C 4.234375 -1.757812 4.441406 -1.953125 4.640625 -2.171875 C 4.835938 -2.398438 5.015625 -2.628906 5.171875 -2.859375 C 5.335938 -3.097656 5.460938 -3.285156 5.546875 -3.421875 L 6.140625 -3.078125 C 5.984375 -2.753906 5.765625 -2.398438 5.484375 -2.015625 C 5.210938 -1.628906 4.90625 -1.269531 4.5625 -0.9375 C 4.21875 -0.613281 3.835938 -0.34375 3.421875 -0.125 C 3.003906 0.09375 2.578125 0.203125 2.140625 0.203125 C 1.753906 0.203125 1.460938 0.101562 1.265625 -0.09375 C 1.078125 -0.300781 0.984375 -0.632812 0.984375 -1.09375 C 0.984375 -1.488281 1.046875 -1.90625 1.171875 -2.34375 C 1.296875 -2.789062 1.476562 -3.359375 1.71875 -4.046875 Z M 5.5625 -14.078125 C 5.226562 -14.078125 4.9375 -14.191406 4.6875 -14.421875 C 4.4375 -14.648438 4.3125 -14.941406 4.3125 -15.296875 C 4.3125 -15.660156 4.429688 -15.96875 4.671875 -16.21875 C 4.921875 -16.46875 5.21875 -16.59375 5.5625 -16.59375 C 5.9375 -16.59375 6.242188 -16.46875 6.484375 -16.21875 C 6.722656 -15.96875 6.84375 -15.664062 6.84375 -15.3125 C 6.84375 -14.96875 6.710938 -14.675781 6.453125 -14.4375 C 6.203125 -14.195312 5.90625 -14.078125 5.5625 -14.078125 Z M 5.5625 -14.078125 "/></g></g></g><g fill="#ffffc8" fill-opacity="1"><g transform="translate(171.885664, 282.745352)"><g><path d="M 8.703125 1.453125 C 8.703125 2.023438 8.578125 2.539062 8.328125 3 C 8.078125 3.46875 7.722656 3.863281 7.265625 4.1875 C 6.804688 4.519531 6.25 4.769531 5.59375 4.9375 C 4.945312 5.113281 4.21875 5.203125 3.40625 5.203125 C 2.664062 5.203125 1.992188 5.132812 1.390625 5 C 0.796875 4.863281 0.285156 4.671875 -0.140625 4.421875 C -0.578125 4.171875 -0.910156 3.875 -1.140625 3.53125 C -1.378906 3.1875 -1.5 2.800781 -1.5 2.375 C -1.5 1.832031 -1.320312 1.378906 -0.96875 1.015625 C -0.613281 0.660156 -0.164062 0.484375 0.375 0.484375 C 0.539062 0.484375 0.695312 0.5 0.84375 0.53125 C 0.988281 0.570312 1.175781 0.648438 1.40625 0.765625 C 0.65625 1.066406 0.28125 1.644531 0.28125 2.5 C 0.28125 3.0625 0.5625 3.5 1.125 3.8125 C 1.695312 4.132812 2.472656 4.296875 3.453125 4.296875 C 3.992188 4.296875 4.488281 4.234375 4.9375 4.109375 C 5.394531 3.992188 5.785156 3.84375 6.109375 3.65625 C 6.429688 3.46875 6.679688 3.257812 6.859375 3.03125 C 7.046875 2.800781 7.140625 2.570312 7.140625 2.34375 C 7.140625 1.96875 6.914062 1.628906 6.46875 1.328125 C 6.019531 1.023438 5.390625 0.800781 4.578125 0.65625 C 3.128906 0.40625 2.0625 0.113281 1.375 -0.21875 C 0.695312 -0.550781 0.359375 -1.019531 0.359375 -1.625 C 0.359375 -2.007812 0.523438 -2.332031 0.859375 -2.59375 C 1.203125 -2.863281 1.816406 -3.132812 2.703125 -3.40625 L 2.734375 -3.484375 C 1.722656 -4.203125 1.21875 -5.128906 1.21875 -6.265625 C 1.21875 -6.878906 1.34375 -7.460938 1.59375 -8.015625 C 1.851562 -8.566406 2.195312 -9.050781 2.625 -9.46875 C 3.0625 -9.882812 3.566406 -10.210938 4.140625 -10.453125 C 4.722656 -10.691406 5.335938 -10.8125 5.984375 -10.8125 C 6.960938 -10.8125 7.785156 -10.453125 8.453125 -9.734375 C 9.085938 -10.441406 9.695312 -10.796875 10.28125 -10.796875 C 10.707031 -10.796875 11.078125 -10.664062 11.390625 -10.40625 C 11.710938 -10.144531 11.875 -9.84375 11.875 -9.5 C 11.875 -9.226562 11.785156 -9.003906 11.609375 -8.828125 C 11.429688 -8.648438 11.207031 -8.5625 10.9375 -8.5625 C 10.738281 -8.5625 10.582031 -8.601562 10.46875 -8.6875 C 10.351562 -8.769531 10.253906 -8.863281 10.171875 -8.96875 C 10.097656 -9.082031 10.007812 -9.179688 9.90625 -9.265625 C 9.8125 -9.359375 9.675781 -9.40625 9.5 -9.40625 C 9.40625 -9.40625 9.316406 -9.382812 9.234375 -9.34375 C 9.160156 -9.3125 9.015625 -9.222656 8.796875 -9.078125 C 8.867188 -8.890625 8.914062 -8.710938 8.9375 -8.546875 C 8.96875 -8.378906 8.984375 -8.171875 8.984375 -7.921875 C 8.984375 -6.453125 8.578125 -5.28125 7.765625 -4.40625 C 6.953125 -3.53125 5.832031 -3.039062 4.40625 -2.9375 C 3.757812 -2.882812 3.300781 -2.804688 3.03125 -2.703125 C 2.757812 -2.597656 2.625 -2.4375 2.625 -2.21875 C 2.625 -1.9375 2.769531 -1.722656 3.0625 -1.578125 C 3.363281 -1.441406 3.738281 -1.328125 4.1875 -1.234375 C 4.644531 -1.140625 5.132812 -1.046875 5.65625 -0.953125 C 6.175781 -0.859375 6.660156 -0.722656 7.109375 -0.546875 C 7.566406 -0.367188 7.945312 -0.125 8.25 0.1875 C 8.550781 0.5 8.703125 0.921875 8.703125 1.453125 Z M 4.5 -3.8125 C 4.820312 -3.8125 5.132812 -3.9375 5.4375 -4.1875 C 5.75 -4.445312 6.023438 -4.785156 6.265625 -5.203125 C 6.515625 -5.628906 6.710938 -6.109375 6.859375 -6.640625 C 7.003906 -7.171875 7.078125 -7.71875 7.078125 -8.28125 C 7.078125 -8.8125 6.957031 -9.234375 6.71875 -9.546875 C 6.476562 -9.859375 6.164062 -10.015625 5.78125 -10.015625 C 5.46875 -10.015625 5.148438 -9.878906 4.828125 -9.609375 C 4.515625 -9.335938 4.226562 -8.988281 3.96875 -8.5625 C 3.707031 -8.132812 3.492188 -7.648438 3.328125 -7.109375 C 3.171875 -6.566406 3.09375 -6.035156 3.09375 -5.515625 C 3.09375 -5.015625 3.21875 -4.601562 3.46875 -4.28125 C 3.726562 -3.96875 4.070312 -3.8125 4.5 -3.8125 Z M 4.5 -3.8125 "/></g></g></g><g fill="#ffffc8" fill-opacity="1"><g transform="translate(186.501328, 282.745352)"><g><path d="M 2.625 -6.59375 C 2.8125 -7.113281 2.941406 -7.535156 3.015625 -7.859375 C 3.097656 -8.179688 3.140625 -8.4375 3.140625 -8.625 C 3.140625 -8.8125 3.109375 -8.929688 3.046875 -8.984375 C 2.984375 -9.046875 2.921875 -9.078125 2.859375 -9.078125 C 2.710938 -9.078125 2.550781 -9.003906 2.375 -8.859375 C 2.207031 -8.722656 2.035156 -8.5625 1.859375 -8.375 C 1.679688 -8.1875 1.523438 -8 1.390625 -7.8125 C 1.265625 -7.632812 1.175781 -7.488281 1.125 -7.375 L 0.546875 -7.734375 C 0.703125 -8.035156 0.921875 -8.363281 1.203125 -8.71875 C 1.492188 -9.082031 1.816406 -9.414062 2.171875 -9.71875 C 2.535156 -10.03125 2.910156 -10.285156 3.296875 -10.484375 C 3.679688 -10.691406 4.050781 -10.796875 4.40625 -10.796875 C 4.738281 -10.796875 4.988281 -10.695312 5.15625 -10.5 C 5.320312 -10.3125 5.40625 -9.960938 5.40625 -9.453125 C 5.40625 -9.066406 5.285156 -8.546875 5.046875 -7.890625 C 4.816406 -7.242188 4.515625 -6.40625 4.140625 -5.375 L 3.40625 -3.359375 C 3.375 -3.296875 3.332031 -3.191406 3.28125 -3.046875 C 3.238281 -2.910156 3.191406 -2.765625 3.140625 -2.609375 C 3.097656 -2.453125 3.0625 -2.300781 3.03125 -2.15625 C 3 -2.007812 2.984375 -1.890625 2.984375 -1.796875 C 2.984375 -1.679688 3.015625 -1.578125 3.078125 -1.484375 C 3.148438 -1.390625 3.257812 -1.34375 3.40625 -1.34375 C 3.601562 -1.34375 3.804688 -1.425781 4.015625 -1.59375 C 4.234375 -1.757812 4.441406 -1.953125 4.640625 -2.171875 C 4.835938 -2.398438 5.015625 -2.628906 5.171875 -2.859375 C 5.335938 -3.097656 5.460938 -3.285156 5.546875 -3.421875 L 6.140625 -3.078125 C 5.984375 -2.753906 5.765625 -2.398438 5.484375 -2.015625 C 5.210938 -1.628906 4.90625 -1.269531 4.5625 -0.9375 C 4.21875 -0.613281 3.835938 -0.34375 3.421875 -0.125 C 3.003906 0.09375 2.578125 0.203125 2.140625 0.203125 C 1.753906 0.203125 1.460938 0.101562 1.265625 -0.09375 C 1.078125 -0.300781 0.984375 -0.632812 0.984375 -1.09375 C 0.984375 -1.488281 1.046875 -1.90625 1.171875 -2.34375 C 1.296875 -2.789062 1.476562 -3.359375 1.71875 -4.046875 Z M 5.5625 -14.078125 C 5.226562 -14.078125 4.9375 -14.191406 4.6875 -14.421875 C 4.4375 -14.648438 4.3125 -14.941406 4.3125 -15.296875 C 4.3125 -15.660156 4.429688 -15.96875 4.671875 -16.21875 C 4.921875 -16.46875 5.21875 -16.59375 5.5625 -16.59375 C 5.9375 -16.59375 6.242188 -16.46875 6.484375 -16.21875 C 6.722656 -15.96875 6.84375 -15.664062 6.84375 -15.3125 C 6.84375 -14.96875 6.710938 -14.675781 6.453125 -14.4375 C 6.203125 -14.195312 5.90625 -14.078125 5.5625 -14.078125 Z M 5.5625 -14.078125 "/></g></g></g><g fill="#ffffc8" fill-opacity="1"><g transform="translate(196.998621, 282.745352)"><g><path d="M 4.703125 -8.9375 L 3.046875 -3.4375 C 2.816406 -2.71875 2.695312 -2.171875 2.6875 -1.796875 C 2.6875 -1.679688 2.710938 -1.578125 2.765625 -1.484375 C 2.828125 -1.390625 2.929688 -1.34375 3.078125 -1.34375 C 3.316406 -1.34375 3.566406 -1.429688 3.828125 -1.609375 C 4.097656 -1.785156 4.359375 -2 4.609375 -2.25 C 4.859375 -2.5 5.078125 -2.753906 5.265625 -3.015625 C 5.460938 -3.273438 5.609375 -3.476562 5.703125 -3.625 L 6.28125 -3.28125 C 6.050781 -2.820312 5.765625 -2.382812 5.421875 -1.96875 C 5.078125 -1.550781 4.707031 -1.179688 4.3125 -0.859375 C 3.925781 -0.535156 3.535156 -0.273438 3.140625 -0.078125 C 2.753906 0.109375 2.398438 0.203125 2.078125 0.203125 C 1.609375 0.203125 1.269531 0.101562 1.0625 -0.09375 C 0.863281 -0.300781 0.765625 -0.632812 0.765625 -1.09375 C 0.765625 -1.363281 0.8125 -1.722656 0.90625 -2.171875 C 1 -2.628906 1.15625 -3.253906 1.375 -4.046875 L 2.859375 -8.9375 L 1.140625 -8.9375 L 1.40625 -9.859375 L 3.140625 -9.859375 L 4.1875 -13.296875 L 6.015625 -13.296875 L 4.984375 -9.859375 L 7.15625 -9.859375 L 6.875 -8.9375 Z M 4.703125 -8.9375 "/></g></g></g><g fill="#ffffc8" fill-opacity="1"><g transform="translate(207.91574, 282.745352)"><g><path d="M 6.640625 -9.765625 C 6.128906 -9.765625 5.601562 -9.53125 5.0625 -9.0625 C 4.53125 -8.59375 4.039062 -8.007812 3.59375 -7.3125 C 3.15625 -6.613281 2.796875 -5.859375 2.515625 -5.046875 C 2.234375 -4.242188 2.09375 -3.492188 2.09375 -2.796875 C 2.09375 -2.316406 2.191406 -1.929688 2.390625 -1.640625 C 2.597656 -1.359375 2.875 -1.21875 3.21875 -1.21875 C 3.53125 -1.21875 3.851562 -1.335938 4.1875 -1.578125 C 4.519531 -1.828125 4.84375 -2.15625 5.15625 -2.5625 C 5.46875 -2.976562 5.757812 -3.441406 6.03125 -3.953125 C 6.3125 -4.472656 6.554688 -5.007812 6.765625 -5.5625 C 6.984375 -6.125 7.148438 -6.671875 7.265625 -7.203125 C 7.390625 -7.734375 7.453125 -8.210938 7.453125 -8.640625 C 7.453125 -8.984375 7.378906 -9.253906 7.234375 -9.453125 C 7.085938 -9.660156 6.890625 -9.765625 6.640625 -9.765625 Z M 8.703125 -10.59375 L 10.359375 -10.59375 L 9.21875 -7.546875 C 9.03125 -7.035156 8.847656 -6.492188 8.671875 -5.921875 C 8.492188 -5.347656 8.332031 -4.789062 8.1875 -4.25 C 8.050781 -3.71875 7.941406 -3.234375 7.859375 -2.796875 C 7.773438 -2.359375 7.734375 -2.03125 7.734375 -1.8125 C 7.734375 -1.425781 7.863281 -1.234375 8.125 -1.234375 C 8.3125 -1.234375 8.578125 -1.425781 8.921875 -1.8125 C 9.273438 -2.207031 9.675781 -2.707031 10.125 -3.3125 L 10.640625 -2.90625 C 10.078125 -1.914062 9.472656 -1.148438 8.828125 -0.609375 C 8.179688 -0.0664062 7.554688 0.203125 6.953125 0.203125 C 6.648438 0.203125 6.414062 0.0859375 6.25 -0.140625 C 6.082031 -0.378906 6 -0.765625 6 -1.296875 C 6 -1.421875 6 -1.5625 6 -1.71875 C 6.007812 -1.875 6.03125 -2.085938 6.0625 -2.359375 L 5.984375 -2.375 C 5.785156 -2 5.546875 -1.65625 5.265625 -1.34375 C 4.992188 -1.03125 4.695312 -0.757812 4.375 -0.53125 C 4.0625 -0.300781 3.726562 -0.125 3.375 0 C 3.03125 0.132812 2.691406 0.203125 2.359375 0.203125 C 1.679688 0.203125 1.148438 -0.0507812 0.765625 -0.5625 C 0.390625 -1.082031 0.203125 -1.796875 0.203125 -2.703125 C 0.203125 -3.617188 0.394531 -4.554688 0.78125 -5.515625 C 1.164062 -6.472656 1.664062 -7.34375 2.28125 -8.125 C 2.894531 -8.90625 3.570312 -9.546875 4.3125 -10.046875 C 5.0625 -10.546875 5.796875 -10.796875 6.515625 -10.796875 C 6.960938 -10.796875 7.320312 -10.691406 7.59375 -10.484375 C 7.875 -10.285156 8.101562 -9.953125 8.28125 -9.484375 Z M 8.703125 -10.59375 "/></g></g></g><g fill="#ffffc8" fill-opacity="1"><g transform="translate(222.93124, 282.745352)"><g><path d="M 3.65625 -13.8125 C 3.726562 -14.0625 3.796875 -14.304688 3.859375 -14.546875 C 3.921875 -14.796875 3.953125 -14.976562 3.953125 -15.09375 C 3.953125 -15.5625 3.445312 -15.796875 2.4375 -15.796875 L 2.59375 -16.40625 L 6.265625 -16.578125 L 2.6875 -3.4375 C 2.570312 -3.082031 2.488281 -2.765625 2.4375 -2.484375 C 2.382812 -2.210938 2.359375 -1.984375 2.359375 -1.796875 C 2.359375 -1.679688 2.390625 -1.578125 2.453125 -1.484375 C 2.523438 -1.390625 2.632812 -1.34375 2.78125 -1.34375 C 2.988281 -1.34375 3.210938 -1.429688 3.453125 -1.609375 C 3.691406 -1.785156 3.921875 -2 4.140625 -2.25 C 4.367188 -2.5 4.566406 -2.753906 4.734375 -3.015625 C 4.910156 -3.273438 5.039062 -3.476562 5.125 -3.625 L 5.71875 -3.28125 C 5.519531 -2.820312 5.257812 -2.382812 4.9375 -1.96875 C 4.613281 -1.550781 4.269531 -1.179688 3.90625 -0.859375 C 3.550781 -0.535156 3.191406 -0.273438 2.828125 -0.078125 C 2.460938 0.109375 2.125 0.203125 1.8125 0.203125 C 1.351562 0.203125 1.007812 0.101562 0.78125 -0.09375 C 0.5625 -0.300781 0.453125 -0.632812 0.453125 -1.09375 C 0.453125 -1.363281 0.492188 -1.722656 0.578125 -2.171875 C 0.660156 -2.628906 0.800781 -3.253906 1 -4.046875 Z M 3.65625 -13.8125 "/></g></g></g></svg>