<svg xmlns="http://www.w3.org/2000/svg" xmlns:xlink="http://www.w3.org/1999/xlink" width="500" zoomAndPan="magnify" viewBox="0 0 375 374.999991" height="500" preserveAspectRatio="xMidYMid meet" version="1.0"><defs><g/><clipPath id="cdb65a3053"><path d="M 88.492188 16.289062 L 286.492188 16.289062 L 286.492188 214.289062 L 88.492188 214.289062 Z M 88.492188 16.289062 " clip-rule="nonzero"/></clipPath><linearGradient x1="-38.179498" gradientTransform="matrix(1, 0, 0, 1, -0.00000653239, -0.00000534252)" y1="665.644194" x2="838.822726" gradientUnits="userSpaceOnUse" y2="159.306175" id="d1d66a8bf3"><stop stop-opacity="1" stop-color="rgb(100%, 100%, 78.399658%)" offset="0"/><stop stop-opacity="1" stop-color="rgb(100%, 100%, 78.399658%)" offset="0.0625"/><stop stop-opacity="1" stop-color="rgb(100%, 99.923706%, 78.33252%)" offset="0.078125"/><stop stop-opacity="1" stop-color="rgb(100%, 99.681091%, 78.123474%)" offset="0.09375"/><stop stop-opacity="1" stop-color="rgb(100%, 99.349976%, 77.835083%)" offset="0.109375"/><stop stop-opacity="1" stop-color="rgb(100%, 99.020386%, 77.548218%)" offset="0.125"/><stop stop-opacity="1" stop-color="rgb(100%, 98.68927%, 77.261353%)" offset="0.140625"/><stop stop-opacity="1" stop-color="rgb(100%, 98.358154%, 76.972961%)" offset="0.15625"/><stop stop-opacity="1" stop-color="rgb(100%, 98.028564%, 76.686096%)" offset="0.171875"/><stop stop-opacity="1" stop-color="rgb(100%, 97.697449%, 76.399231%)" offset="0.1875"/><stop stop-opacity="1" stop-color="rgb(100%, 97.366333%, 76.11084%)" offset="0.203125"/><stop stop-opacity="1" stop-color="rgb(100%, 97.036743%, 75.823975%)" offset="0.21875"/><stop stop-opacity="1" stop-color="rgb(100%, 96.705627%, 75.537109%)" offset="0.234375"/><stop stop-opacity="1" stop-color="rgb(100%, 96.376038%, 75.248718%)" offset="0.25"/><stop stop-opacity="1" stop-color="rgb(100%, 96.044922%, 74.961853%)" offset="0.265625"/><stop stop-opacity="1" stop-color="rgb(100%, 95.713806%, 74.674988%)" offset="0.28125"/><stop stop-opacity="1" stop-color="rgb(100%, 95.384216%, 74.386597%)" offset="0.296875"/><stop stop-opacity="1" stop-color="rgb(100%, 95.053101%, 74.099731%)" offset="0.3125"/><stop stop-opacity="1" stop-color="rgb(100%, 94.721985%, 73.812866%)" offset="0.328125"/><stop stop-opacity="1" stop-color="rgb(100%, 94.392395%, 73.524475%)" offset="0.34375"/><stop stop-opacity="1" stop-color="rgb(100%, 94.061279%, 73.23761%)" offset="0.359375"/><stop stop-opacity="1" stop-color="rgb(100%, 93.730164%, 72.950745%)" offset="0.363118"/><stop stop-opacity="1" stop-color="rgb(100%, 93.565369%, 72.807312%)" offset="0.375"/><stop stop-opacity="1" stop-color="rgb(100%, 93.400574%, 72.662354%)" offset="0.390625"/><stop stop-opacity="1" stop-color="rgb(100%, 93.069458%, 72.375488%)" offset="0.40625"/><stop stop-opacity="1" stop-color="rgb(100%, 92.738342%, 72.088623%)" offset="0.421875"/><stop stop-opacity="1" stop-color="rgb(100%, 92.408752%, 71.800232%)" offset="0.4375"/><stop stop-opacity="1" stop-color="rgb(100%, 92.077637%, 71.513367%)" offset="0.453125"/><stop stop-opacity="1" stop-color="rgb(100%, 91.748047%, 71.226501%)" offset="0.46875"/><stop stop-opacity="1" stop-color="rgb(100%, 91.416931%, 70.93811%)" offset="0.484375"/><stop stop-opacity="1" stop-color="rgb(100%, 91.085815%, 70.651245%)" offset="0.5"/><stop stop-opacity="1" stop-color="rgb(100%, 90.756226%, 70.36438%)" offset="0.515625"/><stop stop-opacity="1" stop-color="rgb(100%, 90.42511%, 70.077515%)" offset="0.53125"/><stop stop-opacity="1" stop-color="rgb(100%, 90.093994%, 69.789124%)" offset="0.546875"/><stop stop-opacity="1" stop-color="rgb(100%, 89.764404%, 69.502258%)" offset="0.5625"/><stop stop-opacity="1" stop-color="rgb(100%, 89.433289%, 69.215393%)" offset="0.578125"/><stop stop-opacity="1" stop-color="rgb(100%, 89.102173%, 68.927002%)" offset="0.59375"/><stop stop-opacity="1" stop-color="rgb(100%, 88.772583%, 68.640137%)" offset="0.609375"/><stop stop-opacity="1" stop-color="rgb(100%, 88.441467%, 68.353271%)" offset="0.625"/><stop stop-opacity="1" stop-color="rgb(100%, 88.110352%, 68.06488%)" offset="0.636882"/><stop stop-opacity="1" stop-color="rgb(100%, 87.945557%, 67.921448%)" offset="0.640625"/><stop stop-opacity="1" stop-color="rgb(100%, 87.780762%, 67.778015%)" offset="0.65625"/><stop stop-opacity="1" stop-color="rgb(100%, 87.449646%, 67.49115%)" offset="0.671875"/><stop stop-opacity="1" stop-color="rgb(100%, 87.120056%, 67.202759%)" offset="0.6875"/><stop stop-opacity="1" stop-color="rgb(100%, 86.78894%, 66.915894%)" offset="0.703125"/><stop stop-opacity="1" stop-color="rgb(100%, 86.457825%, 66.629028%)" offset="0.71875"/><stop stop-opacity="1" stop-color="rgb(100%, 86.128235%, 66.340637%)" offset="0.734375"/><stop stop-opacity="1" stop-color="rgb(100%, 85.797119%, 66.053772%)" offset="0.75"/><stop stop-opacity="1" stop-color="rgb(100%, 85.466003%, 65.766907%)" offset="0.765625"/><stop stop-opacity="1" stop-color="rgb(100%, 85.136414%, 65.478516%)" offset="0.78125"/><stop stop-opacity="1" stop-color="rgb(100%, 84.83429%, 65.216064%)" offset="0.8125"/><stop stop-opacity="1" stop-color="rgb(100%, 84.698486%, 65.098572%)" offset="0.875"/><stop stop-opacity="1" stop-color="rgb(100%, 84.698486%, 65.098572%)" offset="1"/></linearGradient></defs><g clip-path="url(#cdb65a3053)"><path stroke-linecap="butt" transform="matrix(0.261936, 0, 0, 0.262293, 88.534321, 16.288611)" fill="none" stroke-linejoin="miter" d="M 132.206727 234.99328 C 173.992887 336.88898 265.155914 391.321717 377.793627 391.321717 M 377.793627 391.321717 C 490.446253 391.321717 581.594366 336.88898 623.39544 234.99328 M 377.793627 284.764609 C 437.042883 284.764609 485.062668 236.735724 485.062668 177.492652 C 485.062668 177.492652 487.6277 142.04808 458.040354 109.537365 M 377.793627 171.371762 L 377.793627 33.465568 M 297.576725 109.537365 C 267.974466 142.062973 270.554411 177.507545 270.554411 177.507545 C 270.554411 236.750616 318.574196 284.764609 377.80854 284.764609 M 725.161593 602.082889 C 651.95379 635.144634 610.257107 614.8757 539.226599 604.19765 C 451.120733 590.972952 378.792796 625.434608 378.792796 716.905433 M 378.792796 716.905433 C 378.792796 625.434608 306.464859 590.972952 218.358993 604.19765 C 147.343398 614.8757 105.646715 635.144634 32.424 602.082889 M 47.187847 393.242872 C 122.244858 510.582279 283.737483 436.044427 379.105969 528.855594 C 473.042809 432.902072 631.776533 507.14207 715.468158 397.383037 " stroke="url(#d1d66a8bf3)" stroke-width="52" stroke-miterlimit="10"/></g><g fill="#ffffff" fill-opacity="1"><g transform="translate(38.898688, 270.435669)"><g><path d="M 22.242188 -19.621094 L 22.242188 -12.953125 L 29.894531 -12.953125 C 28.910156 -8.144531 25.851562 -5.574219 21.476562 -5.574219 C 16.121094 -5.574219 11.859375 -9.671875 11.859375 -19.128906 C 11.859375 -27.488281 16.066406 -32.136719 21.585938 -32.136719 C 26.179688 -32.136719 28.855469 -29.785156 29.730469 -25.414062 L 29.839844 -24.867188 L 38.367188 -24.867188 L 38.3125 -25.414062 C 37.546875 -32.847656 32.191406 -38.476562 21.695312 -38.476562 C 11.257812 -38.476562 2.84375 -31.316406 2.84375 -18.636719 C 2.84375 -6.339844 9.671875 0.765625 19.949219 0.765625 C 24.046875 0.765625 26.78125 -0.0546875 28.910156 -2.023438 L 30.605469 -5.957031 L 31.261719 0 L 38.039062 0 L 38.039062 -19.621094 Z M 22.242188 -19.621094 "/></g></g></g><g fill="#ffffff" fill-opacity="1"><g transform="translate(79.721063, 270.435669)"><g><path d="M 19.292969 -29.894531 C 17.597656 -29.894531 15.464844 -29.128906 13.992188 -27.597656 L 11.804688 -23.554688 L 11.804688 -29.128906 L 3.222656 -29.128906 L 3.222656 0 L 11.804688 0 L 11.804688 -12.1875 C 11.804688 -20.441406 14.703125 -23.171875 21.476562 -22.734375 L 21.476562 -29.675781 C 20.824219 -29.785156 20.222656 -29.894531 19.292969 -29.894531 Z M 19.292969 -29.894531 "/></g></g></g><g fill="#ffffff" fill-opacity="1"><g transform="translate(101.47113, 270.435669)"><g><path d="M 30.605469 -15.085938 C 30.605469 -22.84375 25.796875 -29.894531 16.503906 -29.894531 C 7.269531 -29.894531 1.421875 -23.226562 1.421875 -14.484375 C 1.421875 -4.207031 7.816406 0.765625 15.957031 0.765625 C 23.0625 0.765625 28.527344 -2.789062 30.113281 -9.507812 L 21.640625 -9.507812 C 21.152344 -6.777344 19.128906 -5.136719 16.121094 -5.136719 C 12.898438 -5.136719 10.492188 -6.777344 10 -12.351562 L 30.441406 -12.351562 C 30.550781 -13.390625 30.605469 -14.320312 30.605469 -15.085938 Z M 16.121094 -23.992188 C 19.292969 -23.992188 21.207031 -21.859375 21.695312 -17.761719 L 10.21875 -17.761719 C 10.929688 -22.078125 13.0625 -23.992188 16.121094 -23.992188 Z M 16.121094 -23.992188 "/></g></g></g><g fill="#ffffff" fill-opacity="1"><g transform="translate(133.604408, 270.435669)"><g><path d="M 30.605469 -15.085938 C 30.605469 -22.84375 25.796875 -29.894531 16.503906 -29.894531 C 7.269531 -29.894531 1.421875 -23.226562 1.421875 -14.484375 C 1.421875 -4.207031 7.816406 0.765625 15.957031 0.765625 C 23.0625 0.765625 28.527344 -2.789062 30.113281 -9.507812 L 21.640625 -9.507812 C 21.152344 -6.777344 19.128906 -5.136719 16.121094 -5.136719 C 12.898438 -5.136719 10.492188 -6.777344 10 -12.351562 L 30.441406 -12.351562 C 30.550781 -13.390625 30.605469 -14.320312 30.605469 -15.085938 Z M 16.121094 -23.992188 C 19.292969 -23.992188 21.207031 -21.859375 21.695312 -17.761719 L 10.21875 -17.761719 C 10.929688 -22.078125 13.0625 -23.992188 16.121094 -23.992188 Z M 16.121094 -23.992188 "/></g></g></g><g fill="#ffffff" fill-opacity="1"><g transform="translate(165.737687, 270.435669)"><g><path d="M 31.316406 -21.859375 C 30.660156 -26.945312 27.109375 -29.894531 20.988281 -29.894531 C 18.253906 -29.894531 16.175781 -29.347656 14.210938 -28.035156 L 11.804688 -24.539062 L 11.804688 -29.128906 L 3.222656 -29.128906 L 3.222656 0 L 11.804688 0 L 11.804688 -13.5 C 11.804688 -20.933594 14.320312 -23.992188 17.707031 -23.992188 C 21.042969 -23.992188 22.679688 -22.132812 22.898438 -19.183594 C 23.007812 -17.707031 23.007812 -16.230469 23.007812 -15.140625 L 23.007812 0 L 31.589844 0 L 31.589844 -16.449219 C 31.589844 -18.800781 31.535156 -20.386719 31.316406 -21.859375 Z M 31.316406 -21.859375 "/></g></g></g><g fill="#ffffff" fill-opacity="1"><g transform="translate(200.220848, 270.435669)"><g><path d="M 21.476562 -29.894531 C 18.527344 -29.894531 15.628906 -29.238281 13.992188 -27.980469 L 11.804688 -24.757812 L 11.804688 -40.167969 L 3.222656 -40.167969 L 3.222656 0 L 11.804688 0 L 11.804688 -3.824219 L 13.71875 -0.765625 C 15.195312 0.164062 18.089844 0.765625 20.496094 0.765625 C 27.980469 0.765625 34.375 -4.699219 34.375 -15.195312 C 34.375 -23.773438 29.511719 -29.894531 21.476562 -29.894531 Z M 18.472656 -5.136719 C 15.195312 -5.136719 11.804688 -7.324219 11.804688 -13.609375 L 11.804688 -14.921875 C 11.804688 -21.585938 14.8125 -23.992188 18.746094 -23.992188 C 22.789062 -23.992188 25.578125 -20.386719 25.578125 -14.648438 C 25.578125 -8.308594 22.625 -5.136719 18.472656 -5.136719 Z M 18.472656 -5.136719 "/></g></g></g><g fill="#ffffff" fill-opacity="1"><g transform="translate(236.015564, 270.435669)"><g><path d="M 16.777344 -29.894531 C 7.105469 -29.894531 1.421875 -23.664062 1.421875 -14.59375 C 1.421875 -5.519531 7.105469 0.765625 16.777344 0.765625 C 26.398438 0.765625 32.136719 -5.519531 32.136719 -14.59375 C 32.136719 -23.664062 26.398438 -29.894531 16.777344 -29.894531 Z M 16.777344 -5.136719 C 12.679688 -5.136719 10.21875 -8.527344 10.21875 -14.59375 C 10.21875 -20.660156 12.679688 -23.992188 16.777344 -23.992188 C 20.824219 -23.992188 23.28125 -20.660156 23.28125 -14.59375 C 23.28125 -8.527344 20.824219 -5.136719 16.777344 -5.136719 Z M 16.777344 -5.136719 "/></g></g></g><g fill="#ffffff" fill-opacity="1"><g transform="translate(269.515048, 270.435669)"><g><path d="M 16.777344 -29.894531 C 7.105469 -29.894531 1.421875 -23.664062 1.421875 -14.59375 C 1.421875 -5.519531 7.105469 0.765625 16.777344 0.765625 C 26.398438 0.765625 32.136719 -5.519531 32.136719 -14.59375 C 32.136719 -23.664062 26.398438 -29.894531 16.777344 -29.894531 Z M 16.777344 -5.136719 C 12.679688 -5.136719 10.21875 -8.527344 10.21875 -14.59375 C 10.21875 -20.660156 12.679688 -23.992188 16.777344 -23.992188 C 20.824219 -23.992188 23.28125 -20.660156 23.28125 -14.59375 C 23.28125 -8.527344 20.824219 -5.136719 16.777344 -5.136719 Z M 16.777344 -5.136719 "/></g></g></g><g fill="#ffffff" fill-opacity="1"><g transform="translate(303.014531, 270.435669)"><g><path d="M 14.046875 -11.148438 L 22.515625 0 L 33.175781 0 L 20.386719 -15.683594 L 33.011719 -29.128906 L 22.84375 -29.128906 L 11.804688 -16.339844 L 11.804688 -40.167969 L 3.222656 -40.167969 L 3.222656 0 L 11.804688 0 L 11.804688 -8.691406 Z M 14.046875 -11.148438 "/></g></g></g><g fill="#ffffc8" fill-opacity="1"><g transform="translate(127.537124, 310.86939)"><g><path d="M 13.46875 -19.90625 C 13.613281 -20.425781 13.722656 -20.859375 13.796875 -21.203125 C 13.878906 -21.546875 13.921875 -21.796875 13.921875 -21.953125 C 13.921875 -22.234375 13.726562 -22.429688 13.34375 -22.546875 C 12.957031 -22.660156 12.269531 -22.71875 11.28125 -22.71875 L 11.59375 -23.875 L 17.140625 -23.875 L 13.953125 -12.21875 C 13.546875 -10.726562 13.207031 -9.453125 12.9375 -8.390625 C 12.675781 -7.335938 12.460938 -6.453125 12.296875 -5.734375 C 12.128906 -5.015625 12.015625 -4.425781 11.953125 -3.96875 C 11.898438 -3.507812 11.875 -3.125 11.875 -2.8125 C 11.875 -2.375 11.941406 -2.066406 12.078125 -1.890625 C 12.210938 -1.722656 12.382812 -1.640625 12.59375 -1.640625 C 13.019531 -1.640625 13.476562 -1.992188 13.96875 -2.703125 C 14.457031 -3.410156 14.894531 -4.34375 15.28125 -5.5 L 16.375 -5.234375 C 15.71875 -3.335938 15 -1.941406 14.21875 -1.046875 C 13.445312 -0.160156 12.570312 0.28125 11.59375 0.28125 C 10.90625 0.28125 10.375 0.0625 10 -0.375 C 9.625 -0.8125 9.4375 -1.441406 9.4375 -2.265625 C 9.4375 -2.484375 9.453125 -2.707031 9.484375 -2.9375 C 9.523438 -3.164062 9.578125 -3.382812 9.640625 -3.59375 L 9.40625 -3.65625 C 8.675781 -2.382812 7.789062 -1.410156 6.75 -0.734375 C 5.71875 -0.0546875 4.734375 0.28125 3.796875 0.28125 C 3.296875 0.28125 2.832031 0.171875 2.40625 -0.046875 C 1.988281 -0.265625 1.625 -0.566406 1.3125 -0.953125 C 1.007812 -1.347656 0.765625 -1.816406 0.578125 -2.359375 C 0.398438 -2.910156 0.3125 -3.523438 0.3125 -4.203125 C 0.3125 -5.023438 0.441406 -5.878906 0.703125 -6.765625 C 0.960938 -7.660156 1.316406 -8.523438 1.765625 -9.359375 C 2.210938 -10.191406 2.734375 -10.984375 3.328125 -11.734375 C 3.929688 -12.484375 4.5625 -13.140625 5.21875 -13.703125 C 5.882812 -14.273438 6.566406 -14.722656 7.265625 -15.046875 C 7.960938 -15.367188 8.644531 -15.53125 9.3125 -15.53125 C 9.96875 -15.53125 10.460938 -15.40625 10.796875 -15.15625 C 11.140625 -14.90625 11.472656 -14.515625 11.796875 -13.984375 Z M 9.515625 -14.015625 C 9.023438 -14.015625 8.523438 -13.851562 8.015625 -13.53125 C 7.503906 -13.21875 7.007812 -12.796875 6.53125 -12.265625 C 6.050781 -11.742188 5.601562 -11.132812 5.1875 -10.4375 C 4.78125 -9.75 4.421875 -9.03125 4.109375 -8.28125 C 3.804688 -7.53125 3.5625 -6.769531 3.375 -6 C 3.195312 -5.238281 3.109375 -4.523438 3.109375 -3.859375 C 3.109375 -3.160156 3.28125 -2.601562 3.625 -2.1875 C 3.96875 -1.78125 4.425781 -1.578125 5 -1.578125 C 5.445312 -1.578125 5.898438 -1.753906 6.359375 -2.109375 C 6.816406 -2.460938 7.265625 -2.925781 7.703125 -3.5 C 8.148438 -4.082031 8.566406 -4.742188 8.953125 -5.484375 C 9.347656 -6.222656 9.691406 -6.976562 9.984375 -7.75 C 10.285156 -8.53125 10.519531 -9.296875 10.6875 -10.046875 C 10.863281 -10.804688 10.953125 -11.492188 10.953125 -12.109375 C 10.953125 -12.703125 10.835938 -13.164062 10.609375 -13.5 C 10.378906 -13.84375 10.015625 -14.015625 9.515625 -14.015625 Z M 9.515625 -14.015625 "/></g></g></g><g fill="#ffffc8" fill-opacity="1"><g transform="translate(149.940777, 310.86939)"><g><path d="M 3.765625 -9.5 C 4.035156 -10.238281 4.226562 -10.835938 4.34375 -11.296875 C 4.457031 -11.765625 4.515625 -12.128906 4.515625 -12.390625 C 4.515625 -12.660156 4.46875 -12.835938 4.375 -12.921875 C 4.289062 -13.015625 4.203125 -13.0625 4.109375 -13.0625 C 3.898438 -13.0625 3.671875 -12.957031 3.421875 -12.75 C 3.171875 -12.550781 2.921875 -12.316406 2.671875 -12.046875 C 2.421875 -11.785156 2.195312 -11.519531 2 -11.25 C 1.8125 -10.976562 1.679688 -10.765625 1.609375 -10.609375 L 0.78125 -11.125 C 1.007812 -11.550781 1.328125 -12.019531 1.734375 -12.53125 C 2.148438 -13.050781 2.613281 -13.53125 3.125 -13.96875 C 3.644531 -14.414062 4.179688 -14.785156 4.734375 -15.078125 C 5.296875 -15.378906 5.828125 -15.53125 6.328125 -15.53125 C 6.804688 -15.53125 7.164062 -15.390625 7.40625 -15.109375 C 7.644531 -14.835938 7.765625 -14.335938 7.765625 -13.609375 C 7.765625 -13.046875 7.597656 -12.296875 7.265625 -11.359375 C 6.929688 -10.421875 6.492188 -9.210938 5.953125 -7.734375 L 4.890625 -4.828125 C 4.847656 -4.734375 4.789062 -4.582031 4.71875 -4.375 C 4.65625 -4.175781 4.59375 -3.96875 4.53125 -3.75 C 4.46875 -3.53125 4.410156 -3.316406 4.359375 -3.109375 C 4.304688 -2.898438 4.28125 -2.726562 4.28125 -2.59375 C 4.28125 -2.414062 4.328125 -2.257812 4.421875 -2.125 C 4.523438 -1.988281 4.679688 -1.921875 4.890625 -1.921875 C 5.179688 -1.921875 5.476562 -2.039062 5.78125 -2.28125 C 6.082031 -2.519531 6.378906 -2.800781 6.671875 -3.125 C 6.960938 -3.457031 7.222656 -3.789062 7.453125 -4.125 C 7.679688 -4.457031 7.851562 -4.722656 7.96875 -4.921875 L 8.828125 -4.4375 C 8.597656 -3.96875 8.285156 -3.457031 7.890625 -2.90625 C 7.503906 -2.351562 7.0625 -1.835938 6.5625 -1.359375 C 6.0625 -0.890625 5.515625 -0.5 4.921875 -0.1875 C 4.328125 0.125 3.710938 0.28125 3.078125 0.28125 C 2.523438 0.28125 2.109375 0.140625 1.828125 -0.140625 C 1.546875 -0.429688 1.40625 -0.910156 1.40625 -1.578125 C 1.40625 -2.140625 1.492188 -2.738281 1.671875 -3.375 C 1.859375 -4.019531 2.125 -4.832031 2.46875 -5.8125 Z M 8 -20.25 C 7.519531 -20.25 7.101562 -20.410156 6.75 -20.734375 C 6.394531 -21.066406 6.21875 -21.488281 6.21875 -22 C 6.21875 -22.519531 6.390625 -22.960938 6.734375 -23.328125 C 7.078125 -23.691406 7.5 -23.875 8 -23.875 C 8.53125 -23.875 8.96875 -23.691406 9.3125 -23.328125 C 9.664062 -22.960938 9.84375 -22.53125 9.84375 -22.03125 C 9.84375 -21.53125 9.660156 -21.109375 9.296875 -20.765625 C 8.929688 -20.421875 8.5 -20.25 8 -20.25 Z M 8 -20.25 "/></g></g></g><g fill="#ffffc8" fill-opacity="1"><g transform="translate(165.040189, 310.86939)"><g><path d="M 12.515625 2.09375 C 12.515625 2.925781 12.335938 3.671875 11.984375 4.328125 C 11.628906 4.992188 11.117188 5.5625 10.453125 6.03125 C 9.796875 6.5 8.992188 6.859375 8.046875 7.109375 C 7.109375 7.359375 6.054688 7.484375 4.890625 7.484375 C 3.835938 7.484375 2.878906 7.382812 2.015625 7.1875 C 1.148438 7 0.40625 6.722656 -0.21875 6.359375 C -0.84375 5.992188 -1.320312 5.566406 -1.65625 5.078125 C -1.988281 4.585938 -2.15625 4.035156 -2.15625 3.421875 C -2.15625 2.640625 -1.898438 1.988281 -1.390625 1.46875 C -0.890625 0.945312 -0.242188 0.6875 0.546875 0.6875 C 0.773438 0.6875 0.992188 0.710938 1.203125 0.765625 C 1.421875 0.828125 1.691406 0.9375 2.015625 1.09375 C 0.941406 1.53125 0.40625 2.363281 0.40625 3.59375 C 0.40625 4.394531 0.8125 5.023438 1.625 5.484375 C 2.4375 5.953125 3.550781 6.1875 4.96875 6.1875 C 5.738281 6.1875 6.445312 6.097656 7.09375 5.921875 C 7.75 5.753906 8.3125 5.535156 8.78125 5.265625 C 9.257812 4.992188 9.625 4.691406 9.875 4.359375 C 10.132812 4.023438 10.265625 3.691406 10.265625 3.359375 C 10.265625 2.828125 9.941406 2.34375 9.296875 1.90625 C 8.660156 1.476562 7.757812 1.160156 6.59375 0.953125 C 4.5 0.585938 2.960938 0.164062 1.984375 -0.3125 C 1.003906 -0.789062 0.515625 -1.460938 0.515625 -2.328125 C 0.515625 -2.890625 0.757812 -3.359375 1.25 -3.734375 C 1.738281 -4.117188 2.617188 -4.503906 3.890625 -4.890625 L 3.9375 -5 C 2.476562 -6.039062 1.75 -7.375 1.75 -9 C 1.75 -9.882812 1.929688 -10.722656 2.296875 -11.515625 C 2.660156 -12.316406 3.15625 -13.019531 3.78125 -13.625 C 4.40625 -14.226562 5.132812 -14.703125 5.96875 -15.046875 C 6.800781 -15.390625 7.675781 -15.5625 8.59375 -15.5625 C 10.019531 -15.5625 11.210938 -15.046875 12.171875 -14.015625 C 13.066406 -15.023438 13.9375 -15.53125 14.78125 -15.53125 C 15.394531 -15.53125 15.929688 -15.34375 16.390625 -14.96875 C 16.859375 -14.59375 17.09375 -14.15625 17.09375 -13.65625 C 17.09375 -13.28125 16.960938 -12.960938 16.703125 -12.703125 C 16.441406 -12.441406 16.117188 -12.3125 15.734375 -12.3125 C 15.441406 -12.3125 15.210938 -12.375 15.046875 -12.5 C 14.890625 -12.625 14.753906 -12.757812 14.640625 -12.90625 C 14.523438 -13.0625 14.394531 -13.203125 14.25 -13.328125 C 14.101562 -13.453125 13.90625 -13.515625 13.65625 -13.515625 C 13.53125 -13.515625 13.40625 -13.488281 13.28125 -13.4375 C 13.164062 -13.394531 12.957031 -13.269531 12.65625 -13.0625 C 12.75 -12.789062 12.816406 -12.535156 12.859375 -12.296875 C 12.898438 -12.054688 12.921875 -11.753906 12.921875 -11.390625 C 12.921875 -9.285156 12.332031 -7.601562 11.15625 -6.34375 C 9.988281 -5.082031 8.378906 -4.378906 6.328125 -4.234375 C 5.410156 -4.148438 4.753906 -4.03125 4.359375 -3.875 C 3.960938 -3.726562 3.765625 -3.5 3.765625 -3.1875 C 3.765625 -2.789062 3.976562 -2.488281 4.40625 -2.28125 C 4.84375 -2.082031 5.382812 -1.914062 6.03125 -1.78125 C 6.6875 -1.644531 7.390625 -1.507812 8.140625 -1.375 C 8.890625 -1.238281 9.585938 -1.039062 10.234375 -0.78125 C 10.890625 -0.53125 11.429688 -0.179688 11.859375 0.265625 C 12.296875 0.722656 12.515625 1.332031 12.515625 2.09375 Z M 6.46875 -5.5 C 6.925781 -5.5 7.375 -5.679688 7.8125 -6.046875 C 8.257812 -6.410156 8.660156 -6.894531 9.015625 -7.5 C 9.367188 -8.101562 9.648438 -8.785156 9.859375 -9.546875 C 10.078125 -10.316406 10.1875 -11.101562 10.1875 -11.90625 C 10.1875 -12.675781 10.007812 -13.285156 9.65625 -13.734375 C 9.3125 -14.179688 8.863281 -14.40625 8.3125 -14.40625 C 7.875 -14.40625 7.421875 -14.207031 6.953125 -13.8125 C 6.492188 -13.425781 6.078125 -12.925781 5.703125 -12.3125 C 5.335938 -11.695312 5.035156 -11 4.796875 -10.21875 C 4.566406 -9.445312 4.453125 -8.6875 4.453125 -7.9375 C 4.453125 -7.207031 4.632812 -6.617188 5 -6.171875 C 5.363281 -5.722656 5.851562 -5.5 6.46875 -5.5 Z M 6.46875 -5.5 "/></g></g></g><g fill="#ffffc8" fill-opacity="1"><g transform="translate(186.063511, 310.86939)"><g><path d="M 3.765625 -9.5 C 4.035156 -10.238281 4.226562 -10.835938 4.34375 -11.296875 C 4.457031 -11.765625 4.515625 -12.128906 4.515625 -12.390625 C 4.515625 -12.660156 4.46875 -12.835938 4.375 -12.921875 C 4.289062 -13.015625 4.203125 -13.0625 4.109375 -13.0625 C 3.898438 -13.0625 3.671875 -12.957031 3.421875 -12.75 C 3.171875 -12.550781 2.921875 -12.316406 2.671875 -12.046875 C 2.421875 -11.785156 2.195312 -11.519531 2 -11.25 C 1.8125 -10.976562 1.679688 -10.765625 1.609375 -10.609375 L 0.78125 -11.125 C 1.007812 -11.550781 1.328125 -12.019531 1.734375 -12.53125 C 2.148438 -13.050781 2.613281 -13.53125 3.125 -13.96875 C 3.644531 -14.414062 4.179688 -14.785156 4.734375 -15.078125 C 5.296875 -15.378906 5.828125 -15.53125 6.328125 -15.53125 C 6.804688 -15.53125 7.164062 -15.390625 7.40625 -15.109375 C 7.644531 -14.835938 7.765625 -14.335938 7.765625 -13.609375 C 7.765625 -13.046875 7.597656 -12.296875 7.265625 -11.359375 C 6.929688 -10.421875 6.492188 -9.210938 5.953125 -7.734375 L 4.890625 -4.828125 C 4.847656 -4.734375 4.789062 -4.582031 4.71875 -4.375 C 4.65625 -4.175781 4.59375 -3.96875 4.53125 -3.75 C 4.46875 -3.53125 4.410156 -3.316406 4.359375 -3.109375 C 4.304688 -2.898438 4.28125 -2.726562 4.28125 -2.59375 C 4.28125 -2.414062 4.328125 -2.257812 4.421875 -2.125 C 4.523438 -1.988281 4.679688 -1.921875 4.890625 -1.921875 C 5.179688 -1.921875 5.476562 -2.039062 5.78125 -2.28125 C 6.082031 -2.519531 6.378906 -2.800781 6.671875 -3.125 C 6.960938 -3.457031 7.222656 -3.789062 7.453125 -4.125 C 7.679688 -4.457031 7.851562 -4.722656 7.96875 -4.921875 L 8.828125 -4.4375 C 8.597656 -3.96875 8.285156 -3.457031 7.890625 -2.90625 C 7.503906 -2.351562 7.0625 -1.835938 6.5625 -1.359375 C 6.0625 -0.890625 5.515625 -0.5 4.921875 -0.1875 C 4.328125 0.125 3.710938 0.28125 3.078125 0.28125 C 2.523438 0.28125 2.109375 0.140625 1.828125 -0.140625 C 1.546875 -0.429688 1.40625 -0.910156 1.40625 -1.578125 C 1.40625 -2.140625 1.492188 -2.738281 1.671875 -3.375 C 1.859375 -4.019531 2.125 -4.832031 2.46875 -5.8125 Z M 8 -20.25 C 7.519531 -20.25 7.101562 -20.410156 6.75 -20.734375 C 6.394531 -21.066406 6.21875 -21.488281 6.21875 -22 C 6.21875 -22.519531 6.390625 -22.960938 6.734375 -23.328125 C 7.078125 -23.691406 7.5 -23.875 8 -23.875 C 8.53125 -23.875 8.96875 -23.691406 9.3125 -23.328125 C 9.664062 -22.960938 9.84375 -22.53125 9.84375 -22.03125 C 9.84375 -21.53125 9.660156 -21.109375 9.296875 -20.765625 C 8.929688 -20.421875 8.5 -20.25 8 -20.25 Z M 8 -20.25 "/></g></g></g><g fill="#ffffc8" fill-opacity="1"><g transform="translate(201.162926, 310.86939)"><g><path d="M 6.765625 -12.859375 L 4.375 -4.953125 C 4.050781 -3.910156 3.878906 -3.125 3.859375 -2.59375 C 3.859375 -2.414062 3.898438 -2.257812 3.984375 -2.125 C 4.066406 -1.988281 4.21875 -1.921875 4.4375 -1.921875 C 4.78125 -1.921875 5.140625 -2.050781 5.515625 -2.3125 C 5.898438 -2.570312 6.269531 -2.878906 6.625 -3.234375 C 6.976562 -3.585938 7.296875 -3.953125 7.578125 -4.328125 C 7.859375 -4.703125 8.066406 -4.992188 8.203125 -5.203125 L 9.03125 -4.71875 C 8.707031 -4.0625 8.296875 -3.429688 7.796875 -2.828125 C 7.296875 -2.222656 6.765625 -1.691406 6.203125 -1.234375 C 5.648438 -0.773438 5.09375 -0.40625 4.53125 -0.125 C 3.96875 0.144531 3.453125 0.28125 2.984375 0.28125 C 2.316406 0.28125 1.832031 0.140625 1.53125 -0.140625 C 1.238281 -0.429688 1.09375 -0.910156 1.09375 -1.578125 C 1.09375 -1.960938 1.160156 -2.476562 1.296875 -3.125 C 1.429688 -3.78125 1.660156 -4.675781 1.984375 -5.8125 L 4.109375 -12.859375 L 1.640625 -12.859375 L 2.015625 -14.1875 L 4.515625 -14.1875 L 6.015625 -19.125 L 8.65625 -19.125 L 7.15625 -14.1875 L 10.296875 -14.1875 L 9.890625 -12.859375 Z M 6.765625 -12.859375 "/></g></g></g><g fill="#ffffc8" fill-opacity="1"><g transform="translate(216.866223, 310.86939)"><g><path d="M 9.546875 -14.03125 C 8.816406 -14.03125 8.0625 -13.695312 7.28125 -13.03125 C 6.507812 -12.363281 5.804688 -11.523438 5.171875 -10.515625 C 4.546875 -9.503906 4.03125 -8.414062 3.625 -7.25 C 3.21875 -6.09375 3.015625 -5.019531 3.015625 -4.03125 C 3.015625 -3.332031 3.160156 -2.773438 3.453125 -2.359375 C 3.742188 -1.953125 4.132812 -1.75 4.625 -1.75 C 5.070312 -1.75 5.535156 -1.925781 6.015625 -2.28125 C 6.492188 -2.632812 6.957031 -3.101562 7.40625 -3.6875 C 7.851562 -4.28125 8.28125 -4.945312 8.6875 -5.6875 C 9.09375 -6.4375 9.445312 -7.207031 9.75 -8 C 10.0625 -8.800781 10.300781 -9.582031 10.46875 -10.34375 C 10.644531 -11.113281 10.734375 -11.804688 10.734375 -12.421875 C 10.734375 -12.921875 10.625 -13.3125 10.40625 -13.59375 C 10.195312 -13.882812 9.910156 -14.03125 9.546875 -14.03125 Z M 12.515625 -15.25 L 14.90625 -15.25 L 13.265625 -10.84375 C 12.992188 -10.113281 12.726562 -9.335938 12.46875 -8.515625 C 12.207031 -7.691406 11.976562 -6.894531 11.78125 -6.125 C 11.582031 -5.351562 11.421875 -4.648438 11.296875 -4.015625 C 11.179688 -3.390625 11.125 -2.925781 11.125 -2.625 C 11.125 -2.0625 11.304688 -1.78125 11.671875 -1.78125 C 11.941406 -1.78125 12.332031 -2.054688 12.84375 -2.609375 C 13.351562 -3.171875 13.925781 -3.894531 14.5625 -4.78125 L 15.296875 -4.171875 C 14.492188 -2.753906 13.628906 -1.65625 12.703125 -0.875 C 11.773438 -0.101562 10.878906 0.28125 10.015625 0.28125 C 9.566406 0.28125 9.222656 0.113281 8.984375 -0.21875 C 8.742188 -0.550781 8.625 -1.101562 8.625 -1.875 C 8.625 -2.039062 8.628906 -2.238281 8.640625 -2.46875 C 8.648438 -2.695312 8.675781 -3.003906 8.71875 -3.390625 L 8.59375 -3.421875 C 8.3125 -2.890625 7.972656 -2.394531 7.578125 -1.9375 C 7.179688 -1.488281 6.753906 -1.097656 6.296875 -0.765625 C 5.835938 -0.429688 5.359375 -0.175781 4.859375 0 C 4.359375 0.1875 3.867188 0.28125 3.390625 0.28125 C 2.410156 0.28125 1.644531 -0.0820312 1.09375 -0.8125 C 0.550781 -1.550781 0.28125 -2.578125 0.28125 -3.890625 C 0.28125 -5.210938 0.554688 -6.5625 1.109375 -7.9375 C 1.671875 -9.320312 2.394531 -10.570312 3.28125 -11.6875 C 4.164062 -12.8125 5.144531 -13.734375 6.21875 -14.453125 C 7.289062 -15.171875 8.34375 -15.53125 9.375 -15.53125 C 10.007812 -15.53125 10.523438 -15.378906 10.921875 -15.078125 C 11.328125 -14.785156 11.65625 -14.304688 11.90625 -13.640625 Z M 12.515625 -15.25 "/></g></g></g><g fill="#ffffc8" fill-opacity="1"><g transform="translate(238.464673, 310.86939)"><g><path d="M 5.265625 -19.875 C 5.359375 -20.21875 5.453125 -20.566406 5.546875 -20.921875 C 5.648438 -21.273438 5.703125 -21.539062 5.703125 -21.71875 C 5.703125 -22.382812 4.972656 -22.71875 3.515625 -22.71875 L 3.734375 -23.59375 L 9 -23.84375 L 3.859375 -4.953125 C 3.703125 -4.429688 3.582031 -3.972656 3.5 -3.578125 C 3.425781 -3.179688 3.390625 -2.851562 3.390625 -2.59375 C 3.390625 -2.414062 3.4375 -2.257812 3.53125 -2.125 C 3.632812 -1.988281 3.789062 -1.921875 4 -1.921875 C 4.300781 -1.921875 4.625 -2.050781 4.96875 -2.3125 C 5.320312 -2.570312 5.65625 -2.878906 5.96875 -3.234375 C 6.28125 -3.585938 6.5625 -3.953125 6.8125 -4.328125 C 7.0625 -4.703125 7.242188 -4.992188 7.359375 -5.203125 L 8.234375 -4.71875 C 7.941406 -4.0625 7.566406 -3.429688 7.109375 -2.828125 C 6.648438 -2.222656 6.160156 -1.691406 5.640625 -1.234375 C 5.117188 -0.773438 4.59375 -0.40625 4.0625 -0.125 C 3.539062 0.144531 3.0625 0.28125 2.625 0.28125 C 1.945312 0.28125 1.445312 0.140625 1.125 -0.140625 C 0.8125 -0.429688 0.65625 -0.910156 0.65625 -1.578125 C 0.65625 -1.960938 0.710938 -2.476562 0.828125 -3.125 C 0.941406 -3.78125 1.144531 -4.675781 1.4375 -5.8125 Z M 5.265625 -19.875 "/></g></g></g></svg>